<?xml version="1.0" encoding="utf-8"?>
<!-- Generator: Adobe Illustrator 16.0.4, SVG Export Plug-In . SVG Version: 6.00 Build 0)  -->
<!DOCTYPE svg PUBLIC "-//W3C//DTD SVG 1.1//EN" "http://www.w3.org/Graphics/SVG/1.1/DTD/svg11.dtd">
<svg version="1.1" id="Ebene_1" xmlns="http://www.w3.org/2000/svg" xmlns:xlink="http://www.w3.org/1999/xlink" x="0px" y="0px"
	 width="101.995px" height="111.38px" viewBox="0 0 101.995 111.38" enable-background="new 0 0 101.995 111.38"
	 xml:space="preserve">
<g>
	<path fill-rule="evenodd" clip-rule="evenodd" fill="#BE906C" d="M45.071,92.72c-0.294-0.127-0.902-0.57-1.148-0.766
		c-0.598-0.479-1.29-1.113-1.693-1.75c-0.398-0.629-0.951-1.279-1.452-1.861c-0.905-1.053-0.973-1.449-1.592-2.34
		c-0.542-0.775-0.909-1.703-1.388-2.5c-0.188-0.311-0.26-0.75-0.412-1.107c-0.255-0.596-1.166-4.908-1.227-5.646
		c-0.021-0.258,0.031-0.436,0.009-0.686c-0.186-2.082-0.491-1.32,0.143-4.406c0.264-1.287,0.337-1.682,0.802-2.92
		c0.225-0.6,0.204-0.867,0.35-1.375c0.414-1.438,2.026-5.527,2.874-6.725c0.46-0.65,0.777-1.138,1.106-1.793
		c0.175-0.349,0.151-0.19,0.361-0.526c0.445-0.712,0.972-1.306,1.568-1.941l0.854-0.981c0.104-0.106,0.337-0.255,0.448-0.363
		c0.241-0.232,0.185-0.281,0.358-0.567c0.163-0.268,0.629-0.503,0.921-0.803c0.178-0.183,0.074-0.096,0.216-0.271
		c0.276-0.339,0.291-0.143,0.649-0.535c0.255-0.279,0.464-0.361,0.745-0.619c0.132-0.121,0.049-0.035,0.176-0.21
		c0.447-0.617,0.396-0.334,0.915-0.664c0.654-0.416,1.205-0.94,1.814-1.389c1.136-0.839,0.86-0.376,1.51-0.916
		c0.312-0.26,0.188-0.039,0.488-0.229c0.377-0.238,0.518-0.649,0.95-0.77c0.318-0.088,0.217,0.014,0.509-0.226
		c0.455-0.372,1.012-0.607,1.513-0.869c0.342-0.178,0.707-0.244,1.047-0.398c0.387-0.176,0.19-0.032,0.555-0.13
		c0.636-0.168,1.196-0.578,1.823-0.788c0.259-0.088,0.571-0.068,0.859-0.209c0.691-0.337,1.519-0.397,2.274-0.551
		c0.382-0.078,0.746-0.099,1.121-0.225c0.443-0.149,0.792-0.144,1.229-0.146c0.308,0,0.316-0.102,0.547-0.148
		c0.206-0.042,0.812,0.08,1.808-0.073c0.775-0.118,1.417,0.091,1.793,0.035c0.181-0.027,0.346-0.125,0.572-0.123
		c0.388,0.003,0.869,0.235,1.322,0.219c0.243-0.009,0.158-0.102,0.549-0.107c1.401-0.016,2.414,0.397,2.726,0.417
		c0.277,0.018,0.238-0.074,0.6,0.028c0.991,0.28,1.984,0.768,2.961,1.1c0.528,0.18,0.976,0.115,1.393,0.27
		c1.472,0.546,2.435,0.857,3.772,1.706c0.413,0.287,1.041,0.515,1.505,0.733c1.414,0.667,1.022,0.967,1.631,1.498
		c0.208,0.182,0.337,0.19,0.546,0.437c0.109,0.127,0.649,0.983,0.734,1.168c0.195,0.428,0.456,0.681,0.729,1.095
		c0.331,0.5,0.792,0.896,1.102,1.405c0.315,0.517,0.323,0.066,0.447,0.823c0.065,0.398,0.171,0.305,0.281,0.623
		c0.104,0.297,0.015,0.365,0.186,0.664c0.426,0.748,0.879,1.596,0.977,2.481c0.09,0.815,0.272,0.448,0.268,1.314
		c-0.004,0.826,0.613,1.756,0.507,2.682c-0.074,0.648,0.003,0.23,0.105,0.721c0.054,0.254-0.024,0.428-0.021,0.754
		c0,0.037,0.008,0.334,0.015,0.398c0.068,0.766-0.106,0.668-0.14,1.119l0.167,0.799c-0.024,0.232-0.046,0.625-0.058,0.902
		c-0.012,0.307-0.067,0.586-0.102,0.93c-0.044,0.443-0.141,0.5-0.097,0.936c0.042,0.416-0.054,1.004-0.092,1.418
		c-0.059,0.635-0.391,1.344-0.452,1.975c-0.019,0.197,0.084,0.043-0.056,0.418l-1.067,2.879l-0.504,0.793
		c-0.177,0.312-0.249,0.623-0.447,0.959c0.008-0.639,0.125-1.168,0.299-1.791c0.037-0.133,0.105-0.693,0.115-0.863
		c0.023-0.369,0-0.475,0.125-0.846l0.369-2.244c-0.067-1.049,0.087-1.449,0.073-2.082c-0.01-0.465-0.203-1.082-0.296-1.506
		c-0.065-0.295-0.034-0.471-0.097-0.77c-0.103-0.484-0.28-0.939-0.379-1.469c-0.058-0.307-0.009-0.494-0.097-0.77
		c-0.138-0.432-0.452-0.969-0.594-1.363c-0.318-0.891-1.499-2.346-2.218-3.072c-3.377-3.423-3.273-2.615-6.725-5.081
		c0.116,0.299,0.2,0.493,0.186,0.779c-0.041,0.876-0.296,1.905-0.62,2.78l2.217,1.435c1.012,0.461,2.415,1.389,3.244,2.152
		c0.446,0.41,0.644,0.172,0.901,0.746c0.186,0.416,0.197,0.645,0.604,0.965c0.486,0.383,0.366,0.645,0.714,1.094
		c0.066,0.084,0.14,0.164,0.206,0.248c0.524,0.666,0.48,0.854,0.747,1.5c0.69,1.68,0.348,1.068,0.532,1.6
		c0.152,0.438,0.388,0.816,0.482,1.289c0.065,0.328,0.062,0.457,0.241,0.768c0.226,0.389,0.103,0.086,0.057,0.492
		c-0.041,0.361-0.024,0.162,0.012,0.432c0.105,0.637-0.018,1.299,0.052,1.943c-0.33-0.295-0.247-0.326-0.336-0.66
		c-0.062-0.23,0.007,0-0.096-0.227c-0.126-0.277-0.151-0.676-0.243-0.984c-0.182-0.609,0.172-0.234-0.141-0.879
		c-0.189-0.393-0.181-1.016-0.388-1.475c-0.21-0.467-0.09-0.006-0.229-0.279l-0.827-1.551c-0.424-0.777-1.265-1.697-1.919-2.32
		c-0.429-0.408-2.822-2.529-3.356-2.805l-1.171-0.584c-0.5-0.26-1.425-0.49-1.736-0.883c-0.074,0.336-0.047,0.777-0.285,1.002
		l-0.252-1.133c-0.299,0.035-0.326-0.002-0.515-0.258c-0.166,1.322-0.235,1.684-0.707,2.953c1.56,0.725,3.633,1.361,4.979,2.365
		c0.43,0.32,1.957,1.811,2.255,2.221c0.161,0.223,0.349,0.539,0.511,0.795c0.261,0.412,1.874,2.004,2.218,3.283
		c0.117,0.436,0.243,0.518,0.416,0.898c0.174,0.385,0.127,0.496,0.241,0.914c0.099,0.359,0.104,0.65,0.182,1.014
		c0.019,0.084,0.132,0.43,0.136,0.467c0.028,0.234-0.016,0.162-0.182,0.287c-0.148-0.598-0.468-1.137-0.809-1.668
		c-0.534-0.83-0.28-0.887-1.016-1.572c-0.434-0.404-0.965-1.121-1.302-1.594c-0.097-0.137-0.12-0.178-0.294-0.268
		c-0.324-0.166,0.001,0.125-0.358-0.186c-0.226-0.193-0.461-0.441-0.665-0.645c-0.521-0.516-1.041-0.834-1.626-1.297
		c-0.17-0.137-0.26-0.268-0.402-0.377c-0.395-0.301-3.121-1.752-3.527-1.945c-0.379-0.18-0.689-0.307-1.144-0.496l-0.986-0.365
		c-2.008-0.744-3.159-0.738-5.268-0.865l-0.935,0.064c-0.824-0.045-0.944-0.109-1.831,0.014c-2.239,0.311-3.035,0.479-5.032,1.357
		c-0.32,0.143-0.533,0.164-0.788,0.369c-0.23,0.186-0.409,0.227-0.701,0.406c-0.59,0.363-0.386,0.102-1.126,0.668
		c-0.574,0.439-1.237,0.688-1.811,1.121c-0.462,0.348-1.057,0.807-1.355,1.205c-0.422,0.562-0.696,0.848-1.223,1.35
		c-0.383,0.365-0.603,0.719-0.913,1.148c-0.217,0.299-0.089,0.119-0.312,0.342c-0.313,0.314-0.31,0.539-0.548,0.869
		c-0.189,0.264-0.376,0.371-0.577,0.713c-0.324,0.549-0.703,1.344-1.061,1.824c-0.394,0.527-0.808,1.146-1.038,1.768
		c-0.467,1.258-1.085,3.727-1.273,4.959c-0.045,0.568-0.029,3.412-0.185,3.723c-0.608-2.238-0.451-1.562-0.625-3.559
		c-0.017-0.184-0.067-0.277-0.05-0.535c0.018-0.277,0.632-3.129,0.783-3.596c0.368-1.135,0.183-1.348,0.895-2.312
		c0.387-0.525,0.657-1.389,0.967-1.887c0.27-0.432,0.163-0.158,0.393-0.449c0.091-0.117,0.269-0.471,0.33-0.592
		c0.287-0.568,0.448-0.686,0.745-1.111l1.919-2.541c0.273-0.297,0.23-0.283,0.505-0.486c0.422-0.312,0.527-0.682,0.884-1.07
		c0.421-0.457,0.114-0.131,0.403-0.277c0.357-0.18,0.78-0.6,1.12-0.852l2.254-1.486c0.296-0.152,0.532-0.119,0.858-0.205
		c0.292-0.078,0.268-0.133,0.491-0.279l2.007-0.801l-0.01-1.82c-0.035-0.527,0.053-0.086-0.091-0.439
		c-0.24-0.592,0.18-0.475-0.263-1.244l-0.781,0.297l0.009,0.871c0.045,0.344,0.234,0.578,0.05,0.857l-0.355-0.227
		c-0.22-0.25-0.197-1.08-0.22-1.332l-1.151,0.309c-0.57,0.08-0.152-0.012-0.495,0.264c-0.185,0.146,0.143,0.051-0.285,0.125
		c-0.485,0.082-0.773,0.305-1.229,0.59c-0.64,0.4-3.336,2.25-3.694,2.652c-0.247,0.279-0.556,0.695-0.799,0.939l-1.707,1.621
		c-0.308,0.303-0.561,0.523-0.839,0.852l-0.766,1.035c-0.242,0.4-0.46,0.756-0.688,1.137c-0.706,1.184-1.024,1.512-1.624,2.859
		c-0.098,0.221-0.288,0.525-0.323,0.621c-0.258,0.697-0.771,2.127-0.906,2.789l-0.75,3.959c-0.047,0.439,0.073,0.947,0.187,1.273
		c0.147,0.422,0.168,0.873,0.145,1.307c-0.061,1.125,0.429,2.162,0.7,3.225c0.237,0.926,0.833,1.867,0.673,2.309l-1.207-1.861
		c-0.161-0.26-0.278-0.559-0.407-0.836c-0.861-2.086-0.488-2.447-0.864-4.104c-0.426-1.881-0.421-3.588,0.062-5.604
		c0.214-0.893,0.526-1.729,0.875-2.639c0.397-1.039,0.538-1.135,0.985-2.441c0.152-0.443,0.388-0.715,0.606-1.164
		c0.428-0.879,0.87-1.918,1.476-2.707c0.065-0.084,0.122-0.133,0.178-0.199c0.071-0.082,0.117-0.15,0.181-0.223
		c0.237-0.268,0.176-0.082,0.399-0.389c0.145-0.199,0.041-0.117,0.252-0.355l0.277-0.326c0.544-0.648,0.949-0.879,1.119-1.133
		l0.33-0.336c0.195-0.172,0.164-0.199,0.28-0.342c0.174-0.215,0.233-0.197,0.323-0.277c0.165-0.146,0.315-0.271,0.499-0.395
		c0.352-0.26,0.456-0.461,0.757-0.732c0.54-0.486,1.087-0.83,1.674-1.266c0.552-0.41,1.103-0.814,1.74-1.105
		c0.595-0.27,1.344-0.582,1.856-0.891c-0.019-0.189-0.035-0.424-0.116-0.569c-0.044-0.08-0.302-0.358-0.368-0.449
		c-0.317-0.443,0.148-0.521-1.054-1.973c-0.213-0.257-0.422-0.542-0.593-0.874l-1.998,0.994c-0.716,0.382-1.224,0.842-1.869,1.279
		c-1.62,1.096-2.913,2.649-4.276,4.073c-0.764,0.799-2.266,3.168-2.836,4.201c-0.222,0.402-0.496,0.789-0.702,1.209
		c-0.227,0.459-0.381,0.855-0.613,1.324c-0.951,1.934-1.279,2.984-1.747,5.086c-0.578,2.592-0.769,5.189-0.501,7.799
		c0.06,0.58,0.197,1.172,0.384,1.73c0.371,1.107,0.621,2.154,1.05,3.234c-0.575-0.854-0.746-1.025-1.074-1.986
		c-0.786-2.305-1.411-2.961-1.737-5.551c-0.11-0.869-0.205-1.596-0.128-2.467c0.039-0.436-0.04-0.789-0.02-1.225
		c0.022-0.486,0.04-0.834,0.081-1.318c0.038-0.453,0.017-0.9,0.087-1.279c0.242-1.318,0.565-2.854,1.159-4.066
		c0.225-0.461,0.439-0.889,0.612-1.357c0.842-2.285,1.971-4.436,3.416-6.318c0.507-0.662,1.219-1.188,1.668-1.885
		c0.176-0.272,1.393-1.311,1.783-1.622c0.62-0.494,0.511-0.639,0.806-0.906c0.217-0.197,0.327-0.159,0.526-0.35
		c0.206-0.199,0.228-0.199,0.427-0.396c0.805-0.798,1.348-1.199,2.423-1.572l0.991-0.654c0.46-0.36,1.034-0.493,1.498-0.827
		l-0.405-0.731c-0.096-0.227-0.079,0.009-0.05-0.268l1.482,0.628c0.308-0.202,0.514-0.294,0.873-0.42
		c-0.885-1.046-0.453-0.529-1.24-1.18c-0.725-0.6-1.133-1.521-2.067-1.925c-0.745,0.345-1.56,0.61-2.272,1.011
		c-1.23,0.692-1.95,1.623-2.989,2.402c-0.853,0.641-1.691,1.279-2.477,2.034c-0.186,0.178-0.228,0.184-0.456,0.361l-1.826,1.954
		c-0.572,0.715-1.214,1.209-1.692,1.949c-2.142,3.311-2.685,5.153-4.014,8.69c-0.351,0.934-0.997,3.23-1.172,4.23
		c-0.212,1.215-0.313,2.473-0.155,3.695c0.214,1.668,0.166,3.465,0.669,5.074c0.101,0.324,0.12,0.582,0.208,0.861l1.459,3.834
		c0.231,0.5,0.523,0.949,0.826,1.395l1.758,2.812C43.504,90.88,45.001,92.482,45.071,92.72L45.071,92.72z M52.064,84.482
		c-0.012-0.018-0.029-0.061-0.041-0.047l-0.145-0.115l0.261-0.277c-0.369-0.771,0.193-1.26,0.276-1.992
		c0.065-0.574,0.096-1.229,0.467-1.822c0.305-0.49,0.416-1.393,0.718-2.094c0.125-0.291,1.396-2.355,1.61-2.65
		c0.194-0.266,0.071-0.076,0.263-0.41l2.193-2.559c0.259-0.326,0.521-0.428,0.673-0.621l0.447-0.549
		c0.303-0.293,0.626-0.348,0.959-0.572c0.396-0.268,1.102-0.859,1.408-0.951l0.406-0.154c0.143-0.08,0.219-0.146,0.38-0.211
		l0.294-0.102c0.219-0.105,0.21-0.184,0.481-0.285c0.459-0.174,0.461-0.293,0.762-0.428l2.2-0.861
		c0.29-0.096,0.377-0.021,0.693-0.119c0.441-0.137-0.002-0.076,0.45-0.033c0.443,0.039,0.108,0.082,0.466-0.059
		c0.539-0.213,0.958-0.207,1.526-0.387c0.162-0.053,0.206-0.104,0.378-0.104c0.272,0.002,1.883,0.311,2.796,0.314
		c1.368,0.004,4.087,1.213,5.331,1.676c0.473,0.176,2.117,1.35,2.505,1.645c0.246,0.188,0.261,0.246,0.543,0.418
		c1.89,1.152,1.718,1.49,2.753,2.223l0.527,0.461c0.347,0.309,0.246,0.057,0.512,0.504c0.302,0.508,0.52,0.305,0.866,1.031
		c0.294,0.619,0.257,0.576,0.827,1.07c-0.009,0.174-0.067,0.252-0.002,0.396c0.135,0.305,0.24,0.271,0.256,0.297l0.383,0.709
		c0.123,0.324,0.175,1.26,0.26,1.586c0.234,0.908,0.139,0.762-0.032,1.729c-0.102,0.578-0.118,1.211-0.264,1.787l-0.61,1.645
		l-0.442,0.234c-0.175-0.273,0.245-1.031,0.378-1.381c0.233-0.613,0.209-0.881,0.318-1.434c0.421-2.129,0.007-2.012,0.037-2.57
		c0.034-0.623-0.123-1.076-0.396-1.66l-0.509-0.865c-0.055-0.154,0.017-0.014-0.076-0.172c-0.146-0.25-0.359-0.428-0.452-0.666
		l-0.678-1c-0.321-0.27-0.459-0.508-0.857-0.807c-0.346-0.258-0.137-0.236-0.473-0.486l-1.156-1.035
		c-0.66-0.721-1.552-1.031-2.102-1.559c-0.596-0.572-1.544-1.166-2.275-1.549l-1.516-0.6c-0.137,0.559,0.443,0.811,0.461,1.354
		c0.016,0.439-0.063,0.875,0.086,1.318c0.145,0.432,0.046,0.93-0.001,1.379l0.865,0.32c0.113-0.303,0.138-0.473,0.099-0.777
		c-0.073-0.6-0.499-0.746-0.01-1.311c0.454,0.203,0.197,0.393,0.403,0.859l0.137,0.609c0.023,0.314,0.024,0.031-0.043,0.346
		l0.421,0.646c0.138-0.404,0.05-0.51,0.146-0.984c0.248,0.068,0.171-0.016,0.319,0.168c0.226,0.283,0.029,0.842-0.015,1.148
		c0.654,0.242,1.101,0.568,1.698,0.859c0.714,0.348,1.558,1.07,2.125,1.625c0.457,0.447,1.014,0.635,1.251,1.338
		c0.134,0.396,0.379,0.357,0.558,1.049c0.056,0.215,0.034,0.447,0.174,0.666c0.44,0.686,0.208,0.715,0.341,1.488
		c0.258,1.504-0.23,1.939-0.369,3.041c-0.041,0.326-0.066,0.576-0.181,0.887c-0.085,0.23-0.231,0.273-0.399,0.588
		c-0.029,0.057-0.162,0.279-0.198,0.316c-0.131,0.135-0.199,0.135-0.358,0.18c-0.026-0.184-0.011-0.045,0.012-0.234
		c0.071-0.582,0.105-3.547,0.028-4.041c-0.072-0.467-0.16-0.783-0.428-1.092c-0.123-0.143-0.039-0.016-0.117-0.154
		c-0.111-0.199,0.019-0.049-0.09-0.236l-0.294-0.275c-0.335-0.305-0.038-0.004-0.246-0.359c-0.291-0.494-0.759-0.787-1.207-1.143
		c-1.264-1.006-2.895-1.637-4.465-2.115c-0.336-0.104-0.547-0.127-0.903-0.074l-0.527,1.422l2.076,0.693
		c0.701,0.262,1.14,0.486,1.694,0.773c1.188,0.613,2.289,1.385,2.876,2.486c0.13,0.242,0.276,0.367,0.365,0.588
		c0.161,0.395,0.248,2.502,0.175,2.982c-0.451,2.926-0.605,2.684-2.617,5.221c0.102-0.814,0.388-1.865,0.458-2.664
		c0.069-0.803-0.358-1.242-0.278-1.902c0.073-0.602-0.352-1.164-0.706-1.668c-0.691-0.98-2.283-1.902-3.276-2.617
		c-0.378,1.021-0.204,0.58-0.369,1.305l-0.46,1.367c1.461,0.953,1.69,0.93,2.311,2.682c0.188,0.531,0.215,0.746,0.285,1.309
		c0.028,0.223,0.065,0.285,0.071,0.436c-0.035,0.557-0.2,1.73-0.391,2.244c-0.144,0.387-0.012,0.059-0.186,0.211
		c-0.084,0.07-0.176,0.119-0.259,0.201c-0.397,0.4-0.697,0.695-1.183,0.975c-0.617,0.354-1.277,0.641-1.955,0.793
		c-1.044,0.232-1.907,0.574-3.083,0.4c-1.306-0.191-1.813-0.039-3.264-0.578c-1.014-0.375-2.286-1.398-2.887-2.346
		c-0.251-0.395-0.345-0.691-0.52-1.059c-0.112-0.232-0.13-0.25-0.201-0.521c-0.134-0.512-0.512-0.631-0.337-2.439
		c0.026-0.27,0.119-0.453,0.181-0.762c0.052-0.264,0.025-0.436,0.059-0.635c0.038-0.225,0.186-0.447,0.295-0.684
		c0.203-0.439,0.435-0.867,0.68-1.178c0.48-0.607,0.884-1.441,1.593-1.891c0.193-0.123,0.349-0.15,0.495-0.246l0.237-0.225
		c0.994-1.033,1.618-0.822,2.383-1.205c0.436-0.219,0.688-0.211,1.232-0.156c0.37,0.037,0.281,0.016,0.611,0.021l0.685-0.068
		l-0.028-0.574c1.116,0.418-0.392,0.4,1.518,0.719c0.031-0.477-0.193-0.719-0.283-1.15c0.713,0.211,0.699,0.477,0.82,1.104
		l0.585,0.219l0.04-0.605l0.516,0.811c0.363,0.293,2.492,0.832,3.205,1.428c0.05,0.041,0.007,0.029,0.166,0.129l1.523,1.266
		c0.027,0.053,0.045,0.119,0.066,0.176l0.794,2.148c0.105-0.254,0.213-0.639,0.236-0.912c0.051-0.584,0.028-1.244-0.187-1.766
		c-0.231-0.559-0.283-0.773-0.684-1.252c-0.779-0.93-0.922-0.758-1.74-1.385c-0.488-0.373-1.007-0.473-1.582-0.639
		c-0.343-0.127-0.734-0.311-1.229-0.443c-1.391-0.379-2.638-0.723-4.07-0.834c-1.508-0.117-1.322,0.096-2.431,0.074
		c-0.767-0.016-1.468,0.316-2.188,0.527c-0.009-0.023-0.03-0.078-0.04-0.061c-0.045-0.189,1.284-0.785,1.677-0.818
		c0.447-0.037,0.187-0.006,0.515-0.197c0.28-0.162,2.12-0.438,2.598-0.537c0.365-0.98,0.321-0.752,0.233-1.578l-0.976,0.105
		l-0.217,0.646c-0.471-0.162-0.323-0.303-0.436-0.766c-0.561,0.305-0.941,0.195-1.642,0.439c-0.161,0.057-0.232,0.098-0.338,0.137
		l-0.576,0.248c-0.197,0.09-0.017,0.033-0.243,0.068c-1.616,0.248-3.548,1.564-4.885,2.582c-0.31,0.236-0.386,0.43-0.633,0.709
		c-0.323,0.361-0.653,0.555-0.95,0.895l-0.315,0.342c-0.446,0.574-1.309,2.092-1.607,2.729c-0.702,1.494-1.124,3.965-0.877,5.627
		c0.116,0.467,0.228,0.934,0.347,1.398c-0.214-0.258-0.427-0.703-0.434-1.055c-0.008-0.506-0.225-0.766-0.197-1.213
		c0.067-1.084-0.318-1.477,0.126-3.275c0.183-0.744,0.06-1.35,0.499-2.051c0.483-0.771,0.943-1.621,1.494-2.328
		c0.305-0.391,0.554-0.459,0.86-0.957c0.933-1.518,1.925-1.721,2.749-2.518c0.67-0.65,1.232-1.016,2.022-1.248l2.251-0.742
		c0.199-0.549,0.082-0.773-0.05-1.209c-0.079-0.268-0.079-0.533-0.419-0.586c-0.553-0.086-2.598,0.975-3.414,1.209
		c-0.447,0.129-0.744,0.424-1.156,0.611c-0.719,0.328-0.28,0.086-1.068,0.783l-1.555,1.238c-0.401,0.27-0.182,0.07-0.487,0.529
		c-0.185,0.275-0.935,0.949-1.423,1.555c-0.014,0.016-0.179,0.205-0.225,0.248c-0.174,0.166-0.116,0.047-0.277,0.27
		c-0.604,0.836-1.512,2.908-1.769,3.9c-0.069,0.27-0.064,0.596-0.105,0.826c-0.093,0.533-0.234,0.693-0.164,1.213l0.06,0.391
		c0.212,0.625,0.062,0.262,0.112,0.84l0.711,2.979c-0.179-0.203-0.405-0.527-0.552-0.734c-0.324-0.459-0.498-1.064-0.705-1.588
		c-0.137-0.348-0.071-0.52-0.105-0.908c-0.026-0.283-0.078-0.566-0.134-0.889c-0.06-0.346-0.188-0.594-0.219-0.861
		c-0.047-0.396,0.152-0.693,0.294-1.1c0.224-0.977-0.027-0.605,0.447-1.885c0.117-0.316,0.6-0.852,0.867-1.455
		c0.977-2.199,0.98-1.836,2.332-3.438c0.264-0.312,0.299-0.43,0.649-0.656c0.292-0.186,0.454-0.387,0.701-0.697
		c0.243-0.303,0.451-0.365,0.764-0.586l1.474-1.105c0.28-0.215,0.57-0.254,0.826-0.422c0.449-0.297,0.266-0.322,0.821-0.443
		c0.494-0.105,1.278-0.408,1.752-0.641c0.317-0.154,0.609-0.096,0.959-0.131c0.452-0.043,0.433-0.156,0.961-0.154l0.946-0.107
		l-0.177-1.652c0.583,0.121,0.472,0.311,0.539,0.746c0.054,0.344,0.09,0.195,0.14,0.414c0.011,0.047,0.017,0.082,0.019,0.131
		l-0.064,0.451c0.343,0.018,0.407-0.027,0.739-0.072l0.708-0.066l-0.077-0.57c-0.051-0.164-0.001-0.029-0.083-0.174
		c-0.009-0.016-0.092-0.133-0.106-0.156l-0.834-1.898c-0.579-0.045-1.767,0.254-2.715,0.273l-2.645,0.619
		c-1.79,0.463-5.001,2.137-6.197,3.588c-0.405,0.49-0.831,1.211-1.229,1.643l-0.622,0.74c-0.618,0.848-1.149,1.674-1.733,2.609
		c-0.9,1.445-1.269,2.066-1.612,4.055c-0.267,1.543-0.344,4.443,0.021,5.852c0.069,0.27,0.183,0.576,0.264,0.834l0.286,0.889
		c-0.182,0.039-0.545-0.951-0.63-1.137c-0.242-0.523-0.256-1.115-0.434-1.648c-0.271-0.811,0.162-0.77-0.085-1.6
		C51.872,85.46,51.862,85.238,52.064,84.482L52.064,84.482z M60.768,86.179c0.468,0.426,0.061,1.139,0.229,2.52
		c0.039,0.324,0.491,2.027,0.673,2.352c0.204,0.365,0.48,0.662,0.744,0.949c1.292,1.406,0.933,1.496,3.328,2.492
		c2.547,1.061,1.371,0.307,2.792,0.793c0.763,0.26,0.905-0.115,1.98,0.002c0.527,0.057,0.175,0.021,0.646-0.104l1.225-0.162
		c0.239-0.029,0.343-0.029,0.63-0.084c0.451-0.09,0.235-0.074,0.579-0.25c0.367-0.189,0.682-0.133,1.122-0.375
		c0.575-0.316,0.056-0.188,1.061-0.65c0.013,0.521-1.069,0.854-1.405,1.072c-0.814,0.523,0.266,0.123-1.118,0.551
		c-1.469,0.455-1.806,0.457-3.291,0.428c-0.451-0.01-0.884,0.104-1.382,0.002c-0.745-0.152-2.383-0.445-2.896-0.703
		c-0.256-0.129-1.298-0.592-1.451-0.697c-0.339-0.236,0.044,0.004-0.251-0.246c-0.472-0.398-1.584-0.824-1.891-1.508
		c-0.386-0.865-0.62-0.289-0.829-1.053c-0.311-1.131-0.791-1.436-0.874-3.701C60.369,87.304,60.563,86.73,60.768,86.179
		L60.768,86.179z M75.847,82.623c0.378,0.414,0.407,0.297,0.154,0.82c-0.401-0.104-0.372-0.021-0.348-0.385
		C75.67,82.798,75.695,82.769,75.847,82.623L75.847,82.623z M56.736,58.37c-0.166-0.281-0.096-0.04-0.117-0.291l0.409,0.093
		l0.459,1.449l-0.397-0.094C56.869,58.832,57.021,58.858,56.736,58.37L56.736,58.37z M80.081,58.848
		c-0.036-0.252,0.059-0.41,0.157-0.678c0.196-0.531,0.188-0.438,0.369-0.487c0.076,0.644,0.154,0.636-0.204,1.283L80.081,58.848
		L80.081,58.848z M41.502,37.315c-0.637-0.858-0.791-0.423-0.835-0.837c0.59-0.069,1.422,0.795,1.507,1.139
		c0.002,0.011,0.036,0.309,0.035,0.314c-0.018,0.169-0.022,0.109-0.092,0.248L41.502,37.315L41.502,37.315z M33.652,27.739
		c-0.564,0.561-1.842,1.478-2.527,1.95c-1.336,0.921-2.572,1.89-3.715,3.076c-0.415,0.429-0.693,0.84-1.114,1.271
		c-0.809,0.825-1.538,1.624-2.365,2.441c-0.754,0.746-1.498,1.793-2.188,2.641c-2.595,3.183-2.17,3.569-3.824,6.611
		c-1.064,1.957-1.312,3.541-1.819,5.488c-0.346,1.329-0.726,2.51-1.011,3.893c-0.113,0.55-0.294,1.208-0.373,1.852l-0.248,1.83
		c-0.037,0.458-0.195,2.537-0.163,3.003c0.026,0.389,0.016,0.957-0.046,1.389c-0.082,0.572,0.095,0.309,0.089,0.83
		c-0.003,0.271-0.064,0.57-0.068,0.855c-0.011,0.643-0.121,0.328,0.069,0.863c0.169,0.475,0.082,1.143,0.111,1.643
		c0.042,0.723,0.272,1.432,0.345,2.16c0.082,0.824,0.324,0.986,0.542,1.744c0.232,0.807,0.191,1.26,0.572,2.195l1.094,2.916
		c-0.393-0.248-0.159-0.326-0.437-0.701c-0.396-0.531-0.729-1.084-1.062-1.688c-0.23-0.418-0.77-1.961-0.895-2.389
		c-0.076-0.254-0.042-0.186-0.155-0.408l-0.172-0.395c-0.024-0.094-0.043-0.32-0.093-0.443c-0.135-0.332-0.108-0.057-0.243-0.432
		c-0.204-0.562-0.312-1.234-0.376-1.803l-0.065-0.926c-0.086-0.406-0.038-0.555-0.085-0.984c-0.072-0.654-0.138-0.348-0.298-0.822
		c-0.143-0.424-0.03-1.037-0.151-1.43c-0.119-0.387-0.116-0.029-0.022-0.537l-0.224-0.932c0.372-1.004-0.034-0.611,0.004-1.305
		c0.031-0.559-0.067-0.795,0.054-1.387c0.193-0.949,0.198-1.897,0.435-2.832c0.149-0.403,0.19-0.333,0.244-0.864
		c0.199-1.959,0.738-5.316,1.44-7.209c0.148-0.399,0.566-1.082,0.876-1.92c0.283-0.764,0.574-1.306,0.835-2.029
		c0.181-0.502,0.199-0.586,0.457-0.946c0.255-0.356,0.645-1.228,0.987-1.752c0.292-0.447,0.249-0.118,0.506-0.786
		c0.264-0.688,1.135-1.703,1.577-2.368c0.335-0.505,0.361-0.699,0.807-1.094c0.159-0.141,0.201-0.191,0.312-0.339
		c1.101-1.453,1.078-1.422,2.283-2.765c0.507-0.565,1.287-1.542,1.768-1.952c0.217-0.186,0.442-0.275,0.676-0.479
		c0.213-0.184,0.364-0.401,0.598-0.614c0.378-0.344,0.599-0.413,0.953-0.748c0.377-0.356,1.869-1.64,2.265-1.9
		c0.466-0.307,0.917-0.587,1.34-0.953l1.273-1.088c0.469-0.364,0.948-0.428,1.369-0.882c0.643-0.694,2.515-1.601,3.415-2.227
		c0.46-0.32,0.957-0.469,1.417-0.788c0.278-0.191,0.409-0.347,0.65-0.505c0.31-0.204,0.448-0.179,0.714-0.376
		c0.226-0.168,0.394-0.299,0.699-0.413c0.162-0.061,0.231-0.057,0.356-0.11c0.211-0.09,0.165-0.126,0.379-0.216
		c0.236-0.1,0.49-0.192,0.74-0.259c-0.398-0.22-0.682-0.594-0.793-1.023c-0.113-0.042-0.225-0.087-0.324-0.152
		c-0.322,0.215-0.431,0.329-0.517,0.375c-0.564,0.299-1.226,0.516-1.769,0.909c-0.376,0.272-0.55,0.267-0.877,0.467
		c-0.505,0.31-0.261,0.25-0.863,0.489c-0.634,0.253-1.717,1.181-2.123,1.328c-0.268,0.097-0.192-0.012-0.475,0.148l-1.711,1.042
		c-0.311,0.211-0.471,0.373-0.821,0.583c-0.325,0.195-0.551,0.323-0.841,0.554c-0.616,0.49-0.963,0.806-1.653,1.157
		c-0.675,0.343-1.08,0.741-1.67,1.106c-1.179,0.73-2.18,1.675-3.147,2.681c-0.728,0.756-1.593,1.346-2.336,2.033
		c-0.296,0.273-0.519,0.395-0.797,0.641c-0.74,0.653-2.345,2.567-2.832,3.323l-1.262,2.02c-0.233,0.415-0.366,0.738-0.605,1.128
		c-0.425,0.693-0.854,1.224-1.247,1.97l-1.533,2.931c-0.392,0.763-0.533,1.604-0.826,2.394l-1.429,4.212
		c-0.041,0.383-0.024,0.52-0.18,0.996l-0.416,1.953c-0.036,0.29-0.091,0.672-0.189,0.995c-0.161,0.53-0.301,0.551-0.24,1.043
		c0.041,0.325,0.041,0.517-0.048,0.899L10.5,58.566c0.062,0.874-0.261,3.343-0.233,4.537l-0.006,1.846
		c-0.019,0.699,0.109,1.471,0.172,2.166c0.039,0.439,0.15,0.807,0.159,1.227c0.008,0.387,0.026,1.473,0.097,1.732
		c0.149,0.549,0.376,1.025,0.496,1.615c0.062,0.303,0.073,0.52,0.171,0.807l1.565,4.674c0.773,2.295,1.896,4.555,3.295,6.537
		c0.463,0.656,1.159,1.258,1.639,1.916c0.179,0.244,0.342,0.416,0.526,0.637c0.866,1.043,2.728,2.738,3.743,3.682
		c0.981,0.912,3.452,2.682,4.735,3.146c0.656,0.236,1.167,0.648,1.653,1.002c1.76,1.275,2.063,1.037,3.657,1.869
		c1.291,0.672,2.548,1.064,3.963,1.398l2.907,0.604c0.35,0.066,0.677,0.205,0.927,0.264c1.929,0.459,3.683,0.574,5.585,0.504
		c0.334-0.014,0.616,0.07,0.914,0.057c1.093-0.053,1.555-0.178,2.505-0.492c0.348-0.115,0.495-0.035,0.86-0.057
		c0.315-0.02,0.485-0.143,0.779-0.234c0.625-0.193,3.042,0.775,3.93,0.896c0.482,0.066,1.277-0.01,1.825,0.031
		c1.2,0.09,2.387,0.006,3.565,0.031c0.594,0.014,1.084-0.072,1.717-0.107c0.51-0.029,0.891,0.014,1.365-0.148
		c0.223-0.074,0.13-0.066,0.343-0.148c0.502-0.193,1.059-0.268,1.534-0.52c1.676-0.891,1.198-0.26,3.431-0.25
		c0.444,0.002,0.602-0.014,1.023,0.102c0.816,0.221,1.791,0.098,2.632-0.021c1.257-0.18,3.633-0.889,4.714-1.484
		c0.455-0.25,1.052-0.855,1.344-0.928c0.824-0.209,0.699-0.291,1.414-0.795c1.29-0.908,2.986-2.012,3.746-3.412
		c0.628-1.156,1.487-2.227,1.95-3.475c0.347-0.936,0.776-2.506,1.353-3.354c0.462-0.68,1.01-2.611,1.1-3.48
		c0.124-1.189,0.676-1.277,1.221-2.326c0.162-0.311,0.384-0.801,0.631-1.291c0.267-0.531,0.262-0.756,0.447-1.256
		c0.841-2.266,1.18-2.078,1.464-4.887l0.304-1.66c0.127-0.691,0.277-1.676,0.301-2.326c0.042-1.178,0.125-3.318,0.058-4.385
		c-0.085-1.375-0.773-3.625-0.801-4.009c-0.034-0.464-0.176-0.929-0.378-1.333c-0.071-0.143-0.151-0.302-0.203-0.446l-0.336-0.938
		c-0.311-0.607-0.496-1.177-0.863-1.789l-0.262-0.424c-0.286-0.475-0.511-0.812-0.899-1.225c-0.364-0.386-0.62-0.788-0.897-1.231
		c-0.294-0.522-1.09-1.588-1.494-2.045c-0.191-0.216-0.534-0.481-0.788-0.735c-0.227-0.226-0.597-0.471-0.886-0.673
		c-0.707-0.498-0.778-0.396-0.85-0.668l-2.151-0.798c-0.148,0.023-0.29,0.016-0.437-0.018c-0.192,0.032-0.395,0.016-0.589-0.057
		l-0.674-0.25c-0.224-0.083-0.407-0.229-0.536-0.409l-2.136-0.619c-0.334-0.147-0.632-0.348-1.113-0.467
		c-0.424-0.105-1.354-0.295-1.925-0.502l-0.487-0.128c-0.157,0.005-0.317-0.011-0.476-0.053l-0.762-0.201l-0.373-0.043
		c-0.129-0.015-0.263-0.049-0.393-0.084c-0.167,0.077-0.384,0.071-0.714,0.041c-0.611-0.055-0.463,0.017-0.563,0.015
		c-0.158-0.003-0.078-0.003-0.228-0.027c-0.569-0.093-1.082-0.125-1.594-0.075l-0.694-0.037c-0.915-0.082-2.73-0.088-3.735,0.017
		c-0.25,0.026-0.446,0.111-0.695,0.143c-0.413,0.053-0.723-0.001-1.041,0.089l-4.225,0.595c-0.466,0.044-1.306,0.258-1.707,0.461
		c-1.249,0.634-2.612,0.733-3.826,1.48c-0.847,0.521-0.642,0.206-1.48,0.789c-0.245,0.17-0.612,0.412-0.867,0.486
		c-0.345,0.099-0.354-0.032-0.663,0.209c-0.703,0.55-0.61,0.382-1.159,0.735c-0.391,0.251-0.771,0.553-1.102,0.868
		c-0.372,0.354-0.756,0.507-1.145,0.77c-0.411,0.278-0.706,0.589-1.092,0.898c-0.208,0.166-0.442,0.258-0.567,0.391
		c-0.237,0.252-0.155,0.318-0.49,0.583c-0.493,0.39-1.768,1.478-2.083,1.957l-0.501,0.59c-1.1,1.357-2.413,2.724-3.229,4.364
		c-0.591,1.187-1.442,2.392-1.926,3.701l-0.975,2.635c-1.166,3.143-1.709,6.832-1.406,9.91c0.117,1.188,0.306,2.402,0.364,3.594
		c0.049,0.986,0.49,2.418,0.829,3.373c0.382,1.074,0.701,2.172,1.196,3.201c0.294,0.611,1.014,1.725,1.227,2.234
		c0.152,0.363,0.014,0.395,0.306,0.816c0.419,0.605,1.35,1.598,1.605,2.064c0.167,0.307,0.207,0.436,0.486,0.729l1.18,1.42
		c-0.99-0.41-1.634-1.324-2.43-1.938c-0.282-0.217-0.57-0.406-0.826-0.631c-0.378-0.332-2.473-2.57-2.675-2.879
		c-0.673-1.033-1.282-2.115-1.978-3.119c-0.396-0.572-0.59-1.07-0.858-1.656c-0.142-0.311-0.26-0.539-0.38-0.85
		c-0.802-2.064-0.881-1.352-1.151-3.975c-0.06-0.584-0.463-1.664-0.44-2.389c0.017-0.51-0.085-0.971-0.042-1.43
		c0.059-0.602-0.146-0.846,0.037-1.518c0.126-0.465,0.004-0.586,0.016-1.035c0.009-0.35,0.115-0.531,0.185-0.965
		c0.066-0.406,0.155-0.766,0.234-1.123c0.155-0.697,0.179-1.582,0.42-2.27c0.173-0.49,0.185-0.715,0.286-1.133
		c0.224-0.92,0.252-1.551,0.8-2.357c0.433-0.637,0.784-1.879,1.216-2.66c0.309-0.559,0.821-1.539,1.199-2.043
		c0.799-1.062,1.62-2.478,1.898-2.844c0.465-0.612,0.859-1.063,1.331-1.602c0.247-0.281,0.44-0.448,0.581-0.783
		c0.162-0.388,0.311-0.566,0.616-0.908c0.244-0.275,0.442-0.424,0.706-0.674c0.128-0.121,0.248-0.232,0.384-0.37
		c0.649-0.648,0.876-1.068,1.864-1.73c0.403-0.271,0.397-0.354,0.72-0.662l3.206-2.079c0.309-0.149,0.562-0.303,0.885-0.455
		c0.582-0.272,1.088-0.646,1.716-0.87c0.485-0.173,1.18-0.6,1.647-0.874c0.276-0.163,0.589-0.189,0.884-0.309
		c0.912-0.368,0.941-0.818,1.017-1.754c0.058-0.73,0.166-1.881-0.177-2.587l-0.309-0.417l-0.284,0.062
		c-0.012,0.411,0.08,0.116,0.053,0.523c-0.018,0.276-0.124,0.577-0.1,0.882l0.099,0.807c-0.744-0.427-0.642-0.955-0.791-1.737
		l-1.238,0.307c-0.197,0.614-0.052,0.404,0.058,0.863l-0.297,0.802c-0.318-0.21-0.252-0.347-0.325-0.726l-0.201-0.639
		c-0.318,0.101-0.403,0.226-0.716,0.351c-1.18,0.469-2.25,1.26-2.916,1.521c-0.294,0.115-0.452,0.15-0.712,0.379
		c-0.606,0.532-0.944,0.477-1.448,0.854c-0.243,0.181-0.388,0.397-0.633,0.555c-0.479,0.309-0.888,0.52-1.36,0.902
		c-0.304,0.248-0.445,0.32-0.722,0.512l-1.321,1.136c-0.574,0.582-1.396,1.163-1.897,1.811l-1.743,2.16
		c-0.868,0.956-1.517,1.897-2.235,2.999c-0.891,1.366-1.733,2.813-2.485,4.301c-0.127,0.253-0.147,0.499-0.297,0.856
		c-0.239,0.572-0.4,1.436-0.644,2.049c-0.376,0.945-0.597,1.082-0.839,2.283c-0.057,0.283-0.027,0.598-0.148,1.004
		c-0.105,0.357-0.284,0.719-0.395,1.07c-0.122,0.389-0.367,2.041-0.347,2.484c0.01,0.203,0.06,0.184,0.047,0.449
		c-0.023,0.484-0.183,0.984-0.093,1.484c0.053,0.289,0.089,0.193,0.115,0.377c0.097,0.676-0.289,2.035-0.124,2.754
		c0.146,0.635,0.093,1.102,0.181,1.77l0.148,0.896c0.248,0.768,0.009-0.111,0.032,0.645c0.023,0.746,0.396,1.77,0.62,2.525
		c0.383,1.295,0.014,0.77,0.883,2.328l0.728,1.574c0.109,0.236,0.237,0.578,0.376,0.781l0.429,0.693
		c0.381,0.762,2.251,3.555,2.79,4.381c0.183,0.281,0.322,0.477,0.451,0.793c-0.476-0.17-1.108-0.98-1.796-1.451
		c-0.183-0.125-0.779-0.592-0.872-0.711c-0.078-0.098-0.108-0.176-0.135-0.215c-0.326-0.486-0.922-0.912-1.157-1.445
		c-0.219-0.5-0.254-0.412-0.651-0.863c-0.425-0.482-0.623-1.273-1.045-1.773l-1.085-1.467c-0.205-0.27-0.082-0.361-0.31-0.693
		c-0.301-0.438-0.482-1.023-0.676-1.533l-0.637-1.818l-0.751-3.549c-0.111-0.781,0.111-1.117-0.171-2.168
		c-0.133-0.494-0.024-1.174-0.058-1.684c-0.02-0.291-0.091-0.244-0.139-0.475c-0.063-0.309,0.02-0.289,0.026-0.631
		c0.002-0.135,0.001,0.072-0.004-0.135c-0.014-0.477,0.139-0.947,0.062-1.41c-0.082-0.484-0.22-0.021-0.021-0.561
		c0.108-0.293,0.175-0.082,0.137-0.498c-0.031-0.332-0.102-0.09,0-0.426c0.133-0.439,0.486-3.141,0.553-3.662
		c0.095-0.738,1.116-4.082,1.31-4.604c0.125-0.336,0.297-0.462,0.446-0.778c0.149-0.316,0.22-0.624,0.387-0.944
		c0.603-1.156,0.992-2.16,1.7-3.148c0.347-0.484,0.691-0.813,1.021-1.364c0.57-0.953,1.313-1.862,2.015-2.713l1.604-1.889
		c0.282-0.376,0.291-0.346,0.581-0.646c0.75-0.777,1.498-1.394,2.331-2.066c0.59-0.476,1.173-0.936,1.839-1.343
		c0.31-0.189,0.331-0.318,0.637-0.543c0.803-0.589,1.649-1.191,2.501-1.691l2.583-1.586c-0.822-0.984,0.026-0.19-0.551-0.879
		c-0.285-0.34-0.053-0.68-0.262-1.029l-0.145-0.358c-0.112-0.363-0.74-1.272-1.08-1.487c-0.554-0.353-0.618-0.515-1.213-1.018
		c-0.491,0.521-2.114,1.549-2.691,1.878c-0.977,0.56-1.85,1.218-2.75,1.874c-1.044,0.76-3.759,3.198-4.759,4.332l-1.465,1.753
		c-0.415,0.532-0.676,0.86-1.154,1.335c-0.292,0.289-0.34,0.434-0.544,0.747c-0.456,0.7-1.682,1.891-2.287,2.897
		c-0.179,0.298-0.295,0.604-0.468,0.904c-0.746,1.298-2.361,4.874-2.961,6.492c-0.078,0.211-0.122,0.713-0.158,0.948
		c-0.288,1.828-0.951,2.135-1.066,5.055l-0.051,1.863c-0.116,1.68,0.054,1.596,0.072,2.711c0.024,1.543,0.152,1.334,0.163,1.764
		c0.048,1.9,0.367,2.377,0.465,3.479c0.025,0.279,0.122,0.537,0.211,0.855c0.161,0.574,0.181,1.119,0.319,1.699
		c0.138,0.574,0.382,1.018,0.532,1.598c0.141,0.547,0.38,1.029,0.554,1.588c0.34,1.088,0.784,2.072,1.25,3.111l1.45,3.006
		c-0.541-0.279-0.309-0.352-0.649-0.701c-0.614-0.631-0.973-0.703-1.51-1.434c-0.405-0.551-0.806-1.039-1.126-1.6
		c-0.194-0.34-0.381-0.541-0.511-0.857c-0.143-0.346-0.125-0.148-0.282-0.416c-0.088-0.152-0.086-0.275-0.166-0.471
		c-0.14-0.344-0.259-0.729-0.479-1.012c-0.198-0.256-0.348-0.377-0.483-0.664l-0.426-0.896c-0.132-0.275-0.147-0.619-0.301-0.879
		c-0.252-0.426-0.216-0.404-0.323-0.949c-0.059-0.299-0.101-0.623-0.192-0.934c-0.107-0.363-0.257-0.551-0.33-0.941
		c-0.072-0.395-0.304-1.637-0.298-2.039c-0.063-0.68-0.128-1.354-0.198-2.033c-0.039-0.375-0.017-0.621-0.07-0.986
		c-0.039-0.271-0.065-0.275-0.052-0.531c0.008-0.166,0.042-0.428,0.053-0.562c0.071-0.857-0.014-1.348-0.001-2.111
		c0.007-0.432,0.068-0.756,0.115-1.158c0.043-0.371-0.017-0.846,0.022-1.082c0.098-0.598,0.384-1.865,0.543-2.389
		c0.256-0.846,0.256-1.568,0.448-2.286c0.11-0.413,0.225-0.774,0.335-1.168c0.109-0.391,0.145-0.826,0.314-1.283
		c0.389-1.046,0.617-2.058,1.02-3.064l0.587-1.486c0.732-1.95,1.794-3.775,2.795-5.494c0.649-1.114,1.388-2.014,2.138-2.952
		c0.935-1.168,2.45-2.652,3.535-3.74c1.056-1.058,3.216-2.978,4.505-3.725c0.234-0.135,0.436-0.32,0.661-0.491
		c1.29-0.982,2.72-1.645,4.099-2.504c-0.333-0.196-0.729-0.309-1.095-0.444c-0.193-0.071-0.39-0.139-0.582-0.21
		c-0.078-0.029-0.253-0.094-0.32-0.131c-0.021-0.013,0.182,0.213-0.242-0.19c0.173-0.178,0.337-0.104,0.588-0.014l1.979,0.746
		l0.907-0.533l-1.348-0.625c0.252-0.278-0.092-0.132,0.454-0.128c0.507,0.003,1.16,0.329,1.657,0.515l0.405-0.342
		c-0.624-0.231-1.447-0.556-2.043-0.651c-0.253-0.041-0.651-0.102-0.98-0.226l-2.16-0.703c-0.399-0.08-0.362,0.024-0.96-0.206
		C34.804,27.91,34.502,28.054,33.652,27.739L33.652,27.739z M51.285,20.478l0.094-0.051L51.285,20.478L51.285,20.478z"/>
	<path fill-rule="evenodd" clip-rule="evenodd" fill="#BE906C" d="M89.586,74.341c0.228-0.266,0.463-0.959,0.507-1.328
		c0.037-0.312,0.158-0.949,0.29-1.348c0.164-0.498,0.371-0.941,0.425-1.416l0.037-1.791c-0.015-0.672,0.133-0.873,0.138-1.273
		c0.004-0.322-0.091-0.283-0.137-0.572l-0.155-1.158c-0.091-0.51-0.003-0.965-0.045-1.48l-0.023-0.201
		c-0.004-0.018-0.012-0.043-0.016-0.061c-0.082-0.303-0.102-0.145-0.112-0.551c-0.006-0.252,0.047-0.477,0.04-0.643
		c-0.033-0.672-0.77-1.924-1.1-2.49c-0.319-0.549-0.407-0.233-0.515-0.991c-0.023-0.16-0.359-0.819-0.45-0.948
		c-0.135-0.192-0.298-0.243-0.414-0.432c-0.137-0.221-0.263-0.558-0.442-0.742c-0.015-0.015-0.035-0.031-0.05-0.046l-0.436-0.565
		c-0.205-0.32-0.453-0.624-0.734-0.893l-0.866-0.832c-0.319-0.256-0.718-0.477-1.001-0.758c-0.296-0.293-0.461-0.498-0.814-0.789
		c-1.501-1.239-0.953-0.697-1.686-1.198c-0.133-0.091-0.225-0.119-0.317-0.245c-0.455-0.624-3.14-1.974-3.709-2.201
		c-0.759-0.304-1.403-0.479-2.332-0.894c-1.856-0.827-2.627-0.621-3.817-0.891c-0.451-0.103-0.889-0.351-1.266-0.213
		c0.401,0.413,0.795,0.944,1.175,1.29c0.015,0.013,0.033,0.031,0.049,0.044c0.017,0.014,0.037,0.029,0.056,0.042l0.522,0.514
		c0.19,0.303,0.158,0.182,0.392,0.375c0.271,0.224,0.495,0.634,0.71,0.893c0.012,0.015,0.029,0.035,0.042,0.05
		c1.02,1.177-0.292,0.664,2.302,1.626c-0.407-1.174-1.053-1.286-0.886-2.029c0.454,0.538,1.01,1.112,1.322,1.746
		c0.301,0.612,0.511,0.543,1.19,0.749l-0.069-0.915c0.49,0.452,0.619,0.467,0.588,1.135c2.334,1.32,4.107,2.122,6.031,3.95
		c0.41,0.389,0.95,0.697,1.319,1.098l0.561,0.554c0.274,0.288,0.268,0.314,0.437,0.617c0.378,0.679,1.291,1.316,1.896,2.479
		c0.276,0.527,0.764,1.59,0.832,2.137c0.083,0.678,0.477,0.891,0.524,1.465c0.033,0.402,0.138,0.518,0.16,0.752
		c0.046,0.506-0.167,0.197,0.094,0.775c0.207,0.457,0.071,0.25,0.037,0.803c-0.038,0.609,0.193,0.984,0.262,1.578
		c0.061,0.527-0.125,1.162-0.074,1.682c0.044,0.455-0.054,0.424-0.09,0.908c-0.044,0.609-0.153,0.852-0.234,1.359
		c-0.033,0.205,0.017,0.127-0.035,0.414C89.654,73.718,89.496,74.101,89.586,74.341L89.586,74.341z"/>
	<path fill-rule="evenodd" clip-rule="evenodd" fill="#BE906C" d="M69.887,81.96c-0.099-0.275-0.174-0.227-0.017-0.568
		C70.838,81.669,70.228,82.917,69.887,81.96L69.887,81.96z M68.048,90.027c-0.784-0.291-1.146-0.844-1.541-1.33
		c-0.378-0.465-0.573-1.295-0.497-1.805c0.083-0.553,0.421-0.881,0.619-1.314c0.148-0.324,0.115-0.455,0.354-0.684l0.244-0.201
		c0.271-0.248,0.917-0.82,1.207-0.943c0.579-0.25,1.239-0.334,1.859-0.402c0.296-0.033,0.232-0.043,0.602-0.014
		c0.254-1.602-0.098-0.553,0.002-1.367c0.123-0.984,0.154-0.369-0.149-1.238c-0.655,0.029-0.771,0.045-1.415,0.225
		c-0.249,0.068-0.221,0.029-0.452,0.061c-1.037,0.139-1.613,0.791-2.411,1.283c-0.766,0.475-1.932,1.908-2.053,2.652l0.126,4.029
		c0.073,0.373,1.474,1.66,1.708,1.832c0.13,0.096,0.279,0.178,0.427,0.275c1.386,0.934,1.844,0.973,3.422,1.174
		c1.188,0.152,1.842,0.035,2.822-0.518c0.234-0.133,0.185-0.123,0.509-0.082c0.343-0.396,1.08-1.059,1.159-1.549
		c0.072-0.445,0.445-0.52,0.129-1.842c-0.171-0.719,0.154-0.779-0.341-1.262l-0.289,0.77c-0.287,0.09-0.355,0.08-0.551,0.223
		c-0.224,0.16-0.239,0.062-0.342,0.205l-0.492,1.275c-0.208,0.297-1.73,0.959-2.429,0.979C69.387,90.486,68.811,90.31,68.048,90.027
		L68.048,90.027z"/>
	<path fill-rule="evenodd" clip-rule="evenodd" fill="#BE906C" d="M65.762,36.74c0.015,0.26,0.051,0.015,0.061,0.327
		c0.014,0.441,0.003,0.624-0.11,0.914c-0.321,0.074-0.387-0.203-0.397-0.472c-0.018-0.495,0.099-0.167-0.146-0.774l-0.667,0.094
		c0.049,1.26,0.034,0.667-0.092,2c-0.038,0.395-0.078,0.388-0.271,0.686c-0.257-0.231-0.147-0.299-0.085-0.616
		c0.07-0.356,0.035-1.635,0.027-2.053l-0.716,0.194c0.038,0.674,0.329,1.051,0.121,2.419c-0.056,0.371,0.004,0.368-0.042,0.616
		l-0.816,2.304c0.654,0.03,1.101-0.205,1.719-0.125c0.52,0.066,1.311-0.057,1.75-0.17c0.762-0.196,0.886-0.394,1.52-0.572
		c0.497-0.138,1.087-0.55,1.362-1.081c0.317-0.611,0.396-1.669,0.045-2.087l-0.095-0.094c-0.014-0.015-0.032-0.033-0.046-0.049
		l-0.084-0.104c-0.669-0.825-1.375-0.945-2.423-1.333C66.166,36.688,66.025,36.76,65.762,36.74L65.762,36.74z"/>
	<path fill-rule="evenodd" clip-rule="evenodd" fill="#BE906C" d="M41.438,34.145l0.22,0.303c0.014,0.017,0.029,0.036,0.044,0.052
		c0.229,0.238,0.18,0.059,0.675,0.571c0.152,0.157,0.025,0.031,0.213,0.177c0.74,0.569,1.125,1.438,1.572,2.064
		c-0.188,0.72-0.088,0.629,0.45,1.609l2.078-1.035c-0.044-0.233,0.02-0.021-0.057-0.194c-0.017-0.039-0.09-0.167-0.129-0.218
		c-0.081-0.108-0.237-0.261-0.308-0.335c-0.363-0.383-0.339-0.644-1.38-1.754c-0.432-0.46-0.934-0.945-1.45-1.307
		C42.596,33.538,42.501,33.16,41.438,34.145L41.438,34.145z"/>
	<path fill-rule="evenodd" clip-rule="evenodd" fill="#BE906C" d="M45.809,22.297c0.13,0.228,0.939,0.393,1.557,0.623l5.426,1.998
		c0.053-0.372,0.038-0.448-0.099-0.783c-0.125-0.305-0.269-0.22-0.837-0.45l-0.959-0.435c0.232-0.205,1.047,0.214,1.655,0.432
		c-0.061-0.381-0.094-0.53-0.26-0.868c-0.133-0.269-0.367-0.433-0.608-0.607c-0.018-0.013-0.035-0.029-0.054-0.042
		c-0.24-0.16-0.791-0.383-1.088-0.419c-0.235-0.028-0.116,0.014-0.451,0.04l-0.726,0.041l-2.568,0.365
		c-0.121,0.032-0.312,0.098-0.43,0.106C46.047,22.318,46.125,22.222,45.809,22.297L45.809,22.297z"/>
	<path fill-rule="evenodd" clip-rule="evenodd" fill="#BE906C" d="M43.02,33.048c0.012,0.021,0.042,0.027,0.04,0.059
		c-0.002,0.031,0.03,0.046,0.038,0.058c0.308,0.482,0.01,0.225,0.402,0.431c1.13,0.592,0.259,0.235,1.346,0.968
		c0.352,0.236,0.218,0.253,0.521,0.561l0.662,0.663c0.201,0.185,0.009-0.012,0.13,0.141l1.108,1.538
		c0.328-0.032,0.654-0.207,1.058-0.358c0.014-1.14-0.48-1.41-0.893-2.044c-0.377-0.581-1.211-1.299-1.846-1.63
		c-0.821-0.427-0.577-0.309-1.387-0.965C43.92,32.517,43.265,32.877,43.02,33.048L43.02,33.048z"/>
	<path fill-rule="evenodd" clip-rule="evenodd" fill="#BE906C" d="M60.582,26.646c1.104,0.553,0.356-0.052,0.975,0.784
		c0.206,0.278,0.284,0.176,0.642,0.729c0.419,0.648,0.74,0.49,1.175,1.378c0.122,0.249,0.001,0.034,0.227,0.304
		c0.259,0.312,0.318,0.629,0.485,1.002l0.402,0.725c1.064-1.438,0.556-1.148,0.529-1.976c-0.011-0.331,0.158-0.393-0.153-0.871
		c-0.011-0.016-0.024-0.038-0.035-0.054l-0.672-0.793c-0.51-0.586-1.76-1.15-2.481-1.215c-0.145-0.013-0.051,0.021-0.345-0.035
		C60.906,26.546,60.894,26.457,60.582,26.646L60.582,26.646z"/>
	<path fill-rule="evenodd" clip-rule="evenodd" fill="#BE906C" d="M43.214,23.193c0.372,0.121,0.734,0.281,1.098,0.398
		c0.408,0.132,0.583,0.022,0.967,0.078c0.429,0.062,0.72,0.249,1.116,0.369c0.768,0.234-0.16-0.293,2.137,0.547
		c0.604,0.221,0.496,0.037,1.03,0.21l2.31,0.86c0.084,0.01,0.486-0.319,0.695-0.445c-0.503-0.274-5.415-2.145-6.265-2.303
		c-2.348-0.438-1.221-0.443-2.146-0.061C43.828,22.982,43.612,22.801,43.214,23.193L43.214,23.193z"/>
	<path fill-rule="evenodd" clip-rule="evenodd" fill="#BE906C" d="M64.943,60.806c-0.659,0.066-1.24,0.48-1.899,0.484l0.242,1.109
		c0.24,0.666,0.047,1.787,0.192,2.357c0.84-0.332,0.552-0.184,1.185-0.373c0.358-0.107,0.793-0.184,1.127-0.348
		c-0.07-0.514,0-0.57-0.104-0.893c-0.152-0.471-0.017-0.336-0.207-0.797C65.044,61.298,65.167,61.398,64.943,60.806L64.943,60.806z"
		/>
	<path fill-rule="evenodd" clip-rule="evenodd" fill="#BE906C" d="M62.518,59.119c0.405,0.03,1.453-0.43,1.902-0.594
		c-0.134-0.411-0.324-0.575-0.516-0.915c-0.2-0.355-0.342-0.624-0.643-0.928c-0.516-0.522-0.204-0.501-0.489-0.939
		c-0.408-0.626-0.19-0.11-0.552-0.967c-0.292-0.026-0.493,0.039-0.753,0.129l-0.423,0.137c-0.229,0.05-0.188-0.014-0.284,0.078
		c-0.104,0.1-0.082,0.069,0.008,0.3l0.16,0.344c0.187,0.363,0.509,0.444,0.704,1.123c0.117,0.408,0.342,0.785,0.55,1.171
		c0.025,0.046,0.116,0.247,0.156,0.34C62.454,58.672,62.456,58.854,62.518,59.119L62.518,59.119z"/>
	<path fill-rule="evenodd" clip-rule="evenodd" fill="#BE906C" d="M75.188,54.754c0.102,0.263-0.018,0.076,0.044,0.376
		c0.274,1.339,0.015,1.323,0.086,1.821c0.108,0.753,0.158,0.023-0.039,1.432l1.786,0.62c-0.035-0.242,0.079-0.987,0.067-1.388
		c-0.009-0.277-0.044-0.492-0.038-0.673c0.02-0.53,0.179-0.271-0.01-0.74c-0.173-0.429-0.091-0.085-0.01-0.664
		c0.102-0.718-0.274-0.573-1.16-0.727c-0.143-0.024-0.272-0.103-0.481-0.097C75.246,54.722,75.321,54.712,75.188,54.754
		L75.188,54.754z"/>
	<path fill-rule="evenodd" clip-rule="evenodd" fill="#BE906C" d="M59.077,26.938c0.128,0.239,0.448,0.419,0.672,0.589
		c0.792,0.599,0.341,0.468,0.743,0.942c0.098,0.114,0.224,0.235,0.318,0.334c0.286,0.302,0.416,0.297,0.633,0.589
		c0.17,0.23,0.245,0.376,0.512,0.655c0.27,0.283,0.204,0.345,0.455,0.683l0.996,1.421l0.529-0.23
		c-0.002-0.903-0.222-0.698-0.647-1.738c-0.208-0.51-0.71-1.182-1.113-1.532l-0.684-0.716c-0.922-1.003-0.371-0.741-0.987-1.054
		c-0.496-0.25-0.416-0.251-0.961-0.121C59.385,26.797,59.196,26.835,59.077,26.938L59.077,26.938z"/>
	<path fill-rule="evenodd" clip-rule="evenodd" fill="#BE906C" d="M57.599,56.272c0.018,0.109,0.066,0.396,0.105,0.494l1.013,1.382
		c0.513,0.787,0.22,0.695,0.403,1.04c0.238,0.448,0.237-0.055,0.528,0.974l1.274-0.456c-0.12-0.294-0.146-0.161-0.228-0.489
		c-0.333-1.327-0.422-0.962-0.71-1.515c-0.208-0.401,0.045-0.458-0.41-1.042c-0.422-0.542-0.08-0.22-0.719-0.896
		c-0.273,0.19-0.324,0.129-0.638,0.233C57.996,56.07,57.796,56.18,57.599,56.272L57.599,56.272z"/>
	<path fill-rule="evenodd" clip-rule="evenodd" fill="#BE906C" d="M46.968,31.186c0.579,0.275,1.625,0.623,2.264,1.221
		c0.23,0.215,0.186,0.153,0.439,0.335l1.312,1.191c-0.134,0.485-0.012,0.522,0.331,0.784l0.442,0.72l1.303-0.348l-1.644-2.128
		c-0.342-0.302-0.598-0.235-0.929-0.586c-0.502-0.535-2.276-1.53-2.743-1.597C47.563,30.75,47.075,30.884,46.968,31.186
		L46.968,31.186z"/>
	<path fill-rule="evenodd" clip-rule="evenodd" fill="#BE906C" d="M68.45,47.064c0.126,0.446,0.746,0.75,0.93,0.937
		c0.325,0.331,0.076,0.081,0.229,0.375c0.33,0.635,0.25-0.007,0.877,0.839l0.369,0.429c0.163,0.272,0.097,0.462,0.353,0.723
		c0.293,0.298,0.42,0.314,0.682,0.641c0.249,0.311,0.325,0.55,0.928,0.515c0.404-0.023-0.04-0.089,0.765,0.03
		c0-0.284-0.185-0.492-0.355-0.687c-0.112-0.128-0.043-0.037-0.118-0.143c-0.009-0.014-0.021-0.037-0.029-0.05
		c-0.256-0.382-0.993-1.114-0.994-1.115c-0.132-0.175,0.012-0.117-0.225-0.363c-0.168-0.176-0.194-0.123-0.388-0.298
		c-0.748-0.679-0.312-0.497-0.867-0.995C70.097,47.444,69.173,46.748,68.45,47.064L68.45,47.064z"/>
	<path fill-rule="evenodd" clip-rule="evenodd" fill="#BE906C" d="M35.897,27.098l-0.86-0.205c-0.486,0.281-0.33,0.185-0.792,0.574
		c1.329,0.477,2.408,0.621,4.235,1.245c0.435,0.148,0.389,0.214,0.732,0.168c0.017-0.002,0.04-0.013,0.057-0.015
		c0.49-0.062,0.715,0.214,1.188,0.336c0.899,0.233-0.532-0.46,2.101,0.528c-0.048-0.091,0.139-0.199-0.707-0.509
		c-1.401-0.515-0.542-0.355-1.16-0.668c-0.996-0.505-0.906-0.503-2.11-0.871c-0.473-0.144-0.46-0.039-0.875-0.16L35.897,27.098
		L35.897,27.098z"/>
	<path fill-rule="evenodd" clip-rule="evenodd" fill="#BE906C" d="M39.636,24.453c0.375,0.181,1.147,0.299,1.609,0.375
		c1.371,0.224,0.849,0.214,1.727,0.401c0.538,0.115,0.616,0.047,1.192,0.267c0.771,0.294,1.574,0.502,2.412,0.814
		c1.204,0.448,0.876,0.214,2.2,0.798l0.762-0.312c-0.791-0.479-6.772-2.551-7.793-2.511C40.401,24.339,40.561,23.948,39.636,24.453
		L39.636,24.453z"/>
	<path fill-rule="evenodd" clip-rule="evenodd" fill="#BE906C" d="M49.21,36.62c0.229-0.029,0.701-0.271,1.016-0.401
		c-0.014-0.021-0.035-0.071-0.052-0.058c-0.106,0.087-0.223-0.537-0.261-0.66l-0.802-1.261c-0.202-0.196-0.114-0.054-0.288-0.286
		c-0.752-1.003-0.578-0.147-1.7-1.271c-0.344-0.345-1.533-0.869-1.825-0.802c-0.351,0.082-0.101,0.458,0.061,0.583
		c0.179,0.137,0.605,0.304,0.818,0.438c0.673,0.425,1.382,1.184,1.885,1.808c0.478,0.592,0.671,0.628,0.964,1.469L49.21,36.62
		L49.21,36.62z"/>
	<path fill-rule="evenodd" clip-rule="evenodd" fill="#BE906C" d="M57.172,27.375c0.485,0.18,1.348,0.678,1.762,0.983
		c0.491,0.362,0.33,0.154,0.563,0.633l1.123,1.34c0.896,0.947,0.394,0.6,1.079,1.336c0.343,0.369,0.214,0.263,0.484,0.752
		l0.785-0.103c-0.012-0.019-0.027-0.065-0.042-0.052c-0.014,0.012-0.032-0.041-0.041-0.052c-0.356-0.493-0.833-1.485-1.309-1.985
		c-0.146-0.154-0.061-0.039-0.175-0.197c-0.134-0.186-0.039-0.077-0.128-0.215c-0.4-0.616-1.024-0.782-1.37-1.56
		c-0.195-0.439-0.211-0.326-0.749-0.742l-0.289-0.211c-0.271-0.222-0.256-0.349-0.649-0.343
		C57.924,26.966,57.351,27.207,57.172,27.375L57.172,27.375z"/>
	<path fill-rule="evenodd" clip-rule="evenodd" fill="#BE906C" d="M70.675,87.232c-0.419-0.25-0.463-0.682-0.057-1.105
		c0.351-0.365,0.75-0.252,1.188,0.055c0.251-0.604,0.253-0.6,0.396-1.244l-0.97,0.369l-0.27-0.51
		c-1.022,0.479-1.852,1.025-1.575,2.303c0.146,0.672,1.255,1.721,2.424,1.059c-0.174-1.166,0.008-0.578-0.754-1.203L70.675,87.232
		L70.675,87.232z"/>
	<path fill-rule="evenodd" clip-rule="evenodd" fill="#BE906C" d="M75.162,60.873l-0.767,2.773c0.235,0.088,0.224,0.074,0.425,0.105
		l1.385,0.232c0.562-1.518,0.438-1.115,0.665-2.693C76.689,61.152,75.608,60.851,75.162,60.873L75.162,60.873z"/>
	<path fill-rule="evenodd" clip-rule="evenodd" fill="#BE906C" d="M55.387,49.382c0.16,0.332,0.658,0.595,0.909,0.867l0.811,0.855
		c0.174,0.175,0.203,0.274,0.394,0.421c0.921,0.705,0.371,0.185,1.373,1.248c0.5-0.152,0.483-0.227,0.852-0.64
		c-0.069-0.162-0.23-0.314-0.404-0.478c-0.65-0.613-0.536-0.619-1.031-1.013c-0.44-0.352-0.123-0.305-0.434-0.559
		c-0.185-0.152-0.525-0.272-0.702-0.43c-0.119-0.106-0.349-0.467-0.463-0.555C56.27,48.775,55.776,49.288,55.387,49.382
		L55.387,49.382z"/>
	<path fill-rule="evenodd" clip-rule="evenodd" fill="#BE906C" d="M77.363,59.098l0.854,0.345c0.286-0.767,0.368-1.312,0.546-2.103
		c0.047-0.205,0.103-0.764,0.073-0.914c-0.049-0.24-0.085-0.14-0.158-0.328l-0.058-0.46c-0.901-0.338-0.056,0.04-1.142-0.501
		c-0.1,0.226-0.057,0.151-0.091,0.443c-0.083,0.725,0.136,0.362,0.112,0.919C77.461,57.406,77.512,58.238,77.363,59.098
		L77.363,59.098z"/>
	<path fill-rule="evenodd" clip-rule="evenodd" fill="#BE906C" d="M52.067,39.452c-0.035,0.351,0.102,0.714,0.229,1.032
		c0.146,0.366,0.046,0.096,0.106,0.486c0.14,0.921,0.113,0.788,0.055,1.703c-0.04,0.629-0.071,0.597-0.258,1.278l0.765-0.088
		c0.592-1.533-0.031,0.011,0.277-1.481c0.196-0.942-0.096-1.079,0.049-1.594c0.198-0.698,0.319-0.721-0.07-1.607
		c-0.309,0.011-0.26,0.079-0.529,0.171C52.434,39.439,52.308,39.404,52.067,39.452L52.067,39.452z"/>
	<path fill-rule="evenodd" clip-rule="evenodd" fill="#BE906C" d="M59.31,55.632c0.366,0.438,0.355,0.377,0.672,0.906
		c0.118,0.198,0.203,0.309,0.303,0.475c0.318,0.53-0.139,0.227,0.369,0.855c0.213,0.262,0.098,0.137,0.189,0.39
		c0.006,0.017,0.013,0.042,0.02,0.059c0.006,0.018,0.017,0.041,0.025,0.058c0.431,0.945-0.015,0.302,0.584,1.241l0.713-0.272
		c-0.104-0.447-0.168-0.672-0.334-1.063l-0.495-1.005c-0.206-0.43-0.027-0.443-0.494-1.007c-0.229-0.277-0.445-0.655-0.61-0.98
		C59.896,55.308,59.539,55.443,59.31,55.632L59.31,55.632z"/>
	<path fill-rule="evenodd" clip-rule="evenodd" fill="#BE906C" d="M65.36,60.791c0.02,0.207,0.047,0.186,0.083,0.338
		c0.086,0.365-0.012,0.406,0.236,0.787l0.22,0.379c0.102,0.289,0.029,0.158,0.056,0.389c0.069,0.598,0.144,0.029,0.186,0.574
		c0.025,0.336-0.032,0.135,0.066,0.699l0.941-0.129c0.02-0.59-0.184-0.254-0.078-0.824c0.043-0.227,0.11-0.242,0.037-0.51
		c-0.045-0.164-0.101-0.119-0.138-0.346c-0.038-0.227,0.035-0.145-0.014-0.404c-0.064-0.346-0.099,0.055-0.218-1.182
		C66.306,60.425,65.647,60.632,65.36,60.791L65.36,60.791z"/>
	<path fill-rule="evenodd" clip-rule="evenodd" fill="#BE906C" d="M73.549,60.552c-0.289,0.779-0.231,1.182-0.292,1.414
		l-0.461,1.496l1.217,0.172c0.417-0.91,0.543-1.826,0.811-2.828L73.549,60.552L73.549,60.552z"/>
	<path fill-rule="evenodd" clip-rule="evenodd" fill="#BE906C" d="M49.306,30.106c0.73,0.271,1.198,0.554,1.78,0.973
		c0.31,0.223,0.47,0.331,0.718,0.546c0.231,0.202,0.58,0.331,0.811,0.514c0.715,0.563-0.042,0.434,0.753,0.975
		c0.231,0.157,0.174,0.085,0.307,0.323c0.331,0.589,0.594,0.702,1.192,1.139l-0.437-0.93c-0.31-0.305-0.005-0.068-0.194-0.404
		c-0.15-0.268-0.869-0.856-1.111-1.069c-0.017-0.271,0.345-0.138-0.453-0.803c-0.219-0.183-0.349-0.204-0.563-0.358
		c-0.294-0.21-1.985-1.212-2.231-1.19L49.306,30.106L49.306,30.106z"/>
	<path fill-rule="evenodd" clip-rule="evenodd" fill="#BE906C" d="M64.992,58.521l0.411-0.146c-0.029-0.161-0.69-1.821-0.831-2.025
		c-0.366-0.532-0.663-1.147-1.217-1.861c-0.914,0.055-0.873,0.147-0.268,1.037l0.156,0.271c0.392,1.1,0.041,0.262,0.662,1.067
		c0.201,0.26,0.437,0.849,0.8,1.326L64.992,58.521L64.992,58.521z"/>
	<path fill-rule="evenodd" clip-rule="evenodd" fill="#BE906C" d="M69.923,69.406c-0.001,0.492,0.851,1.896,0.911,2.084l0.17,0.822
		l0.929,0.084c0.089-0.361-0.07-0.449-0.163-0.807c-0.077-0.299-0.088-0.498-0.133-0.807c-0.062-0.432-0.173-0.402-0.271-0.766
		c-0.038-0.139-0.034-0.188-0.099-0.357l-0.209-0.441c-0.185,0.096-0.08,0.029-0.428,0.008
		C70.412,69.212,70.146,69.257,69.923,69.406L69.923,69.406z"/>
	<path fill-rule="evenodd" clip-rule="evenodd" fill="#BE906C" d="M56.988,48.799c0.182,0.336,0.429,0.611,0.774,0.832
		c1.159,0.741,0.32,0.269,0.876,0.839l0.494,0.447c0.014,0.016,0.03,0.035,0.043,0.051l0.991,1.273l0.968-0.002
		c-0.086-0.144-0.268-0.186-0.419-0.474c-0.327-0.625-1.264-1.396-1.299-1.442c-0.681-0.896-0.498-0.136-0.941-0.938
		c-0.235-0.426-0.583-0.679-0.945-0.98C57.307,48.564,57.237,48.576,56.988,48.799L56.988,48.799z"/>
	<path fill-rule="evenodd" clip-rule="evenodd" fill="#BE906C" d="M58.553,48.145l0.644,0.832c0.127,0.167,0.024,0.048,0.109,0.159
		c0.316,0.41,0.24,0.14,0.609,0.414c0.208,0.153,0.139,0.262,0.414,0.562l0.682,0.701c0.184,0.203,0.168,0.1,0.323,0.253
		c0.488,0.486-0.413,0.118,1.043,0.909c0.21-0.448-0.299-0.885-0.532-1.2c-0.987-1.333-1.026-1.133-1.973-2.094
		C59.675,48.479,58.808,47.791,58.553,48.145L58.553,48.145z"/>
	<path fill-rule="evenodd" clip-rule="evenodd" fill="#BE906C" d="M61.21,42.365l0.584,0.151c0.334-0.686,0.83-2.08,0.816-2.741
		c-0.028-1.366,0.546-0.475-0.463-2.151c-0.049,2.068-0.223,1.332-0.322,2.329c-0.089,0.892-0.043,0.419-0.358,1.172
		C61.303,41.518,61.227,41.979,61.21,42.365L61.21,42.365z"/>
	<path fill-rule="evenodd" clip-rule="evenodd" fill="#BE906C" d="M67.48,60.433c0.012,0.41,0.06,0.463,0.189,0.773
		c0.157,0.381,0.052,0.434,0.155,0.82c0.231,0.867-0.112,0.189,0.173,1.686l0.715-0.275c0.398-1.074,0.132-1.383,0.146-1.766
		c0.041-1.146,0.019-0.283-0.601-0.934C67.781,60.238,68.111,60.507,67.48,60.433L67.48,60.433z"/>
	<path fill-rule="evenodd" clip-rule="evenodd" fill="#BE906C" d="M61.009,32.794l-0.553-1.175
		c-0.103-0.151-0.203-0.167-0.354-0.316c-0.272-0.27-0.203-0.54-0.435-0.754c-0.287-0.266-0.489-0.315-0.781-0.66
		c-0.611-0.719-0.55-0.96-1.269-1.338l-2.257-0.91c0.406,0.335,0.235,0.265,0.825,0.519c0.363,0.156,1.375,1.043,1.686,1.313
		c0.297,0.258,0.483,0.403,0.742,0.677c0.563,0.596,0.869,0.615,1.428,1.797l0.242,0.366C60.595,32.78,60.489,32.971,61.009,32.794
		L61.009,32.794z"/>
	<path fill-rule="evenodd" clip-rule="evenodd" fill="#BE906C" d="M75.117,72.73c0.373,0.178,0.688,0.324,0.675-0.227l-0.044-0.326
		c-0.034-1-0.151-0.357-0.159-1.229c-0.008-0.861,0.142-0.611-0.219-1.133c-0.221-0.318-0.237-0.531-0.458-1.066l-0.825-0.305
		c0.006,0.398,0.274,0.545,0.586,1.492c0.082,0.248,0.155,0.264,0.23,0.506c0.074,0.24,0.044,0.244,0.131,0.488
		C75.289,71.654,75.042,72.005,75.117,72.73L75.117,72.73z"/>
	<path fill-rule="evenodd" clip-rule="evenodd" fill="#BE906C" d="M59.742,47.751c0.116,0.198,0.384,0.341,0.529,0.478
		c0.142,0.133,0.312,0.406,0.45,0.529c0.252,0.224,0.354,0.176,0.638,0.47c0.489,0.506,1.039,1.285,1.358,1.895
		c0.24,0.458,0.042,0.253,0.838,0.726l0.083-0.736c-0.122-0.13-0.255-0.298-0.41-0.419c-1.104-0.859-0.324-0.373-0.853-0.844
		c-0.995-0.885-0.421-0.938-1.028-1.353c-0.486-0.333-0.369-0.308-0.857-0.911C60.223,47.595,60.003,47.701,59.742,47.751
		L59.742,47.751z"/>
	<path fill-rule="evenodd" clip-rule="evenodd" fill="#BE906C" d="M37.528,25.483c1.591,0.628,1.152,0.317,2.372,0.616
		c1.931,0.473,1.472,0.374,3.459,1.065l1.747,0.566c0.115-0.393,0.158-0.054-0.106-0.341c-0.111-0.122-0.265-0.197-0.415-0.263
		c-1.843-0.81-3.285-0.85-5.094-1.392c-0.366-0.109-0.578-0.14-1.013-0.304C37.903,25.213,37.899,25.221,37.528,25.483
		L37.528,25.483z"/>
	<path fill-rule="evenodd" clip-rule="evenodd" fill="#BE906C" d="M53.699,39.067c0.011,0.354,0.056,0.168,0.12,0.514
		c0.019,0.102,0.045,0.453,0.036,0.513c-0.103,0.679-0.324,0.432-0.211,1.203c0.053,0.359-0.005,0.753-0.083,1.119
		c-0.151,0.715,0.113,0.029-0.174,1.2c0.296,0.07,0.217,0.047,0.369-0.305c0.194-0.451,0.358-1.403,0.54-2.089
		c0.215-0.815,0.119-0.603,0.098-1.222l0.129-1.277C54.266,38.809,53.92,38.945,53.699,39.067L53.699,39.067z"/>
	<path fill-rule="evenodd" clip-rule="evenodd" fill="#BE906C" d="M37.102,25.614c-0.045,0.032-0.074,0.06-0.153,0.112l-0.231,0.146
		c0.183,0.156,0.738,0.276,1.124,0.313c0.649,0.063,1.699,0.478,2.35,0.708c0.473,0.167,2.245,0.415,2.265,0.421
		c1.497,0.497,1.768,0.733,3.458,0.96l-4.491-1.549c-0.968-0.113-1.103-0.33-2.089-0.433C38.603,26.218,37.875,25.791,37.102,25.614
		L37.102,25.614z"/>
	<path fill-rule="evenodd" clip-rule="evenodd" fill="#BE906C" d="M71.791,60.464c-0.103,0.422,0.102,0.697-0.054,1.395
		l-0.423,1.627l0.735-0.027l0.775-2.99c-0.395-0.078-0.166-0.004-0.527,0.045C71.894,60.568,72.066,60.46,71.791,60.464
		L71.791,60.464z"/>
	<path fill-rule="evenodd" clip-rule="evenodd" fill="#BE906C" d="M65.157,54.294c0.043,0.389,0.082,0.383,0.244,0.647l0.806,1.689
		c0.318,0.916,0.048,0.993,0.825,1.418c0.08-0.419-0.341-1.131-0.527-2.036l-0.729-1.969C65.536,54.125,65.357,54.192,65.157,54.294
		L65.157,54.294z"/>
	<path fill-rule="evenodd" clip-rule="evenodd" fill="#BE906C" d="M65.63,46.886c0.11,0.196,0.178,0.312,0.404,0.528l0.571,0.568
		c0.351,0.332,0.167,0.231,0.377,0.571c0.182,0.295,0.38,0.459,0.615,0.879c0.388,0.689,0.558,0.206,0.957,0.792
		c0.547,0.804-0.027,0.243,0.878,1.183c0.188-0.39-0.133-0.523-0.294-0.835c-0.297-0.577,0.186-0.061-0.43-0.62
		c-0.208-0.188-0.173-0.218-0.357-0.458c-0.357-0.464-0.447-0.408-0.72-0.889c-0.134-0.237,0.169,0-0.25-0.299
		C65.75,47.146,66.729,46.974,65.63,46.886L65.63,46.886z"/>
	<path fill-rule="evenodd" clip-rule="evenodd" fill="#BE906C" d="M77.151,75.556c2.572,0.648,0.87,0.223,2.53,1.02
		c0.183,0.088,0.35,0.066,0.579,0.072c-1.268-1.236-1.224-1.297-2.912-2.061C77.294,75.013,77.486,74.662,77.151,75.556
		L77.151,75.556z"/>
	<path fill-rule="evenodd" clip-rule="evenodd" fill="#BE906C" d="M69.938,60.337c-0.064,0.668,0.355-0.092-0.202,3.209
		c0.58,0.086,0.632-0.41,0.874-1.473c0.069-0.305,0.024-1.17,0.045-1.711C70.372,60.275,70.234,60.23,69.938,60.337L69.938,60.337z"
		/>
	<path fill-rule="evenodd" clip-rule="evenodd" fill="#BE906C" d="M71.305,80.718c-0.042,0.463,0.059,0.227,0.153,0.588
		c0.133,0.508-0.2,0.26-0.028,1.045c0.078,0.352,0.042,0.619,0.033,0.986l0.739-0.178c0.252-0.682-0.01-1.619-0.139-2.295
		L71.305,80.718L71.305,80.718z"/>
	<path fill-rule="evenodd" clip-rule="evenodd" fill="#BE906C" d="M72.397,72.484l0.83,0.018c0.073-0.473-0.093-0.52-0.208-0.854
		c-0.35-1.012,0.629,0.08-1.298-2.281c-0.066,0.334,0.383,1.268,0.406,1.471c0.114,1,0.084,0.479,0.272,1.156
		C72.487,72.31,72.544,72.013,72.397,72.484L72.397,72.484z"/>
	<path fill-rule="evenodd" clip-rule="evenodd" fill="#BE906C" d="M58.33,42.652c0.745-0.489,0.483-0.196,1.03-1.672
		c0.324-0.875-0.289-0.059,0.122-1.72c0.079-0.319,0.082-0.604,0.014-0.918c-0.067-0.309-0.041-0.296-0.269-0.777
		c-0.438,0.388,0.013,0.6,0.042,1.019l-0.201,1.312c-0.052,0.227-0.132,0.413-0.179,0.621C58.68,41.443,58.829,41.304,58.33,42.652
		L58.33,42.652z"/>
	<path fill-rule="evenodd" clip-rule="evenodd" fill="#BE906C" d="M70.982,73.234l-0.158,1.605l1.296-0.15
		c0.21-0.986-0.083-1.062-0.084-1.383L70.982,73.234L70.982,73.234z"/>
	<path fill-rule="evenodd" clip-rule="evenodd" fill="#BE906C" d="M73.041,54.192c0.072,0.513-0.183-0.429,0.051,0.136
		c0.373,0.903,0.194,1.709,0.555,2.302c0.103,0.169-0.047,0.347,0,0.825l0.14,0.639c0.536-0.479,0.154-1.878,0.188-2.236
		c0.009-0.092,0.037-0.195,0.022-0.282c-0.085-0.495-0.249,0.142-0.227-0.791c0.004-0.165,0.032-0.031-0.023-0.26
		c-0.002-0.011-0.082-0.217-0.099-0.239C73.486,54.08,73.273,54.072,73.041,54.192L73.041,54.192z"/>
	<path fill-rule="evenodd" clip-rule="evenodd" fill="#BE906C" d="M55.239,43.286l0.486,0.008c0.065-0.181,0.197-0.5,0.233-0.675
		c0.08-0.39-0.056-0.112,0.071-0.627c0.164-0.661,0.069-0.594,0.218-1.355c0.054-0.274,0.062-0.462,0.026-0.687
		c-0.132-0.833-0.019-0.773-0.311-1.53l-0.037,2.241c-0.066,0.399-0.285,0.916-0.368,1.332c-0.062,0.312,0.026,0.229-0.059,0.554
		C55.443,42.767,55.315,43.055,55.239,43.286L55.239,43.286z"/>
	<path fill-rule="evenodd" clip-rule="evenodd" fill="#BE906C" d="M66.662,46.944c0.068,0.222,0.198,0.458,0.35,0.641
		c0.129,0.155,0.44,0.387,0.599,0.5c0.347,0.245,0.324,0.127,0.535,0.489c0.388,0.667,1.235,1.468,1.332,1.635l0.703,0.958
		c-0.691-0.624-0.114-0.363-0.609-1.14c-0.193-0.302-0.138-0.362-0.294-0.612c-0.204-0.325-1.361-1.749-1.845-2.161
		C67.038,46.918,67.12,47.065,66.662,46.944L66.662,46.944z"/>
	<path fill-rule="evenodd" clip-rule="evenodd" fill="#BE906C" d="M58.07,33.559c-0.194-0.366,0.243-0.842-0.457-1.584
		c-0.304-0.322-0.345-0.64-1.102-1.409l-3.448-2.146c0.287,0.259,0.015,0.346,0.476,0.56c0.173,0.08,0.398,0.122,0.57,0.218
		l0.841,0.594c0.097,0.071,0.158,0.178,0.359,0.3c0.461,0.28,0.661,0.121,0.893,0.547c0.312,0.575,0.005,0.125,0.541,0.708
		c1.024,1.116,0.356-0.056,0.91,1.492C57.772,33.175,57.862,33.437,58.07,33.559L58.07,33.559z"/>
	<path fill-rule="evenodd" clip-rule="evenodd" fill="#BE906C" d="M69.27,73.23c-0.139,0.375,0.218,1.256,0.346,1.646l0.715-0.062
		c0.069-0.254,0.229-1.252,0.139-1.391C70.247,73.078,69.724,73.601,69.27,73.23L69.27,73.23z"/>
	<path fill-rule="evenodd" clip-rule="evenodd" fill="#BE906C" d="M74.218,75.962c-0.337,0.908-0.129,0.541-0.744,1.344l1.017,0.352
		l0.549-1.479C74.71,76.042,74.538,75.931,74.218,75.962L74.218,75.962z"/>
	<path fill-rule="evenodd" clip-rule="evenodd" fill="#BE906C" d="M68.204,53.817c0.469,0.826,0.278,0.434,0.578,0.876
		c0.25,0.368,0.034,0.604,0.293,1.092l1.025,1.999c0.119-0.881-0.377-1.34-0.601-1.987l-0.784-1.981
		c-0.032,0.003-0.163,0.013-0.165,0.013C68.387,53.832,68.381,53.833,68.204,53.817L68.204,53.817z"/>
	<path fill-rule="evenodd" clip-rule="evenodd" fill="#BE906C" d="M70.083,53.778c0.115,0.685,0.612,1.569,0.642,1.659
		c0.118,0.351-0.068,0.073,0.273,0.761c0.111,0.224,0.084,0.256,0.223,0.511c0.268,0.495,0.192,0.407,0.365,1.006l0.112,0.018
		c0.149-0.125,0.041,0.221,0.137-0.205c0.084-0.376-0.125-0.356-0.292-0.826c-0.144-0.402-0.318-0.692-0.46-1.018
		c-0.077-0.176-0.121-0.43-0.17-0.542c-0.163-0.366-0.201-0.004-0.198-0.529C70.72,53.69,70.091,53.772,70.083,53.778L70.083,53.778
		z"/>
	<path fill-rule="evenodd" clip-rule="evenodd" fill="#BE906C" d="M70.857,53.777c0.76,0.898,0.094,0.564,0.435,1.128l0.583,1.37
		c0.002,0.005,0.067,0.171,0.067,0.171c0.032,0.091,0.045,0.174,0.073,0.238c0.228,0.537,0.073-0.272,0.477,1.179
		c0.271-0.187,0.172-0.239,0.113-0.417c-0.029-0.087-0.051-0.057-0.108-0.234l-0.167-0.87c-0.115-0.576-0.355-0.53-0.528-0.92
		c-0.17-0.386,0.01-0.26-0.072-0.586c-0.073-0.292-0.163-0.196-0.31-0.47l-0.139-0.568L70.857,53.777L70.857,53.777z"/>
	<path fill-rule="evenodd" clip-rule="evenodd" fill="#BE906C" d="M63.671,47.08c0.602,0.636,0.104,0.277,0.467,0.665
		c0.206,0.219,0.654,0.32,0.865,0.558c0.336,0.379-0.111,0.159,0.738,1.095c0.385,0.424,0.187,0.315,0.65,0.45
		c-0.339-0.913-1.161-1.64-1.886-2.345C64.081,47.089,64.224,47.057,63.671,47.08L63.671,47.08z"/>
	<path fill-rule="evenodd" clip-rule="evenodd" fill="#BE906C" d="M74.082,84.054c0.134-0.359,0.738-1.885,0.761-2.191
		c0.019-0.266-0.035-0.326-0.22-0.592l-0.858,2.297C73.686,83.917,73.634,83.886,74.082,84.054L74.082,84.054z"/>
	<path fill-rule="evenodd" clip-rule="evenodd" fill="#BE906C" d="M74.861,73.572c-0.036,0.646-0.064,0.598-0.236,1.26
		c0.958,0.459,0.821,0.428,1.061-1.066L74.861,73.572L74.861,73.572z"/>
	<path fill-rule="evenodd" clip-rule="evenodd" fill="#BE906C" d="M72.982,87.683c0.42,0.004-0.027-0.051,0.633-0.264l0.134-0.039
		l0.395-1.068l-0.541-0.527C73.393,86.353,73.023,87.144,72.982,87.683L72.982,87.683z"/>
	<path fill-rule="evenodd" clip-rule="evenodd" fill="#BE906C" d="M68.1,73.5c0.024,0.279,0.023,0.09,0.074,0.359
		c0.136,0.736,0.104-0.02,0.202,1.068l0.038,0.254l0.639-0.301c0.021-0.385,0.034,0.02-0.108-0.338l-0.206-1.268
		C68.493,73.369,68.312,73.361,68.1,73.5L68.1,73.5z"/>
	<path fill-rule="evenodd" clip-rule="evenodd" fill="#BE906C" d="M73.008,83.64c0.097-0.262,0.166-0.434,0.227-0.703
		c0.106-0.48,0.052-0.459,0.083-0.705c0.105-0.83,0.3-0.463-0.315-1.229c0.105,0.502-0.216,0.934-0.194,1.389
		c0.015,0.32,0.099-0.148,0.024,0.357c-0.012,0.078-0.178,0.5-0.08,0.703C72.812,83.574,72.537,83.523,73.008,83.64L73.008,83.64z"
		/>
	<path fill-rule="evenodd" clip-rule="evenodd" fill="#BE906C" d="M59.264,42.56c0.284,0.071,0.369,0.13,0.484-0.211
		c0.073-0.217-0.006-0.325,0.104-0.716c0.416-1.472,0.336-2.383,0.095-3.724c-0.021,0.175-0.001,0.159,0.009,0.22l0.092,0.779
		c-0.056,0.373-0.327,0.877-0.266,1.208c0.083,0.444,0.377,0.055-0.02,1.106C59.595,41.666,59.43,42.113,59.264,42.56L59.264,42.56z
		"/>
	<path fill-rule="evenodd" clip-rule="evenodd" fill="#BE906C" d="M75.905,75.171l0.796,0.271c0.222-0.58,0.149-0.619,0.034-1.27
		l-0.634-0.189C76.161,74.316,76.026,74.8,75.905,75.171L75.905,75.171z"/>
	<path fill-rule="evenodd" clip-rule="evenodd" fill="#BE906C" d="M56.374,43.039c0.26-0.059,0.236-0.026,0.521-0.921l0.173-1.021
		l-0.338-1.725c-0.115,0.521,0.067,0.135,0.062,0.82C56.79,40.561,56.354,42.866,56.374,43.039L56.374,43.039z"/>
	<path fill-rule="evenodd" clip-rule="evenodd" fill="#BE906C" d="M70.96,68.013l0.098,0.244c0.084,0.123,0.136,0.133,0.227,0.236
		c0.429,0.623-0.132,0.357,1,0.746c-0.021-0.16-0.562-1.176-0.577-1.188C71.428,67.949,71.201,67.984,70.96,68.013L70.96,68.013z"/>
	<path fill-rule="evenodd" clip-rule="evenodd" fill="#BE906C" d="M63.082,47.188l0.47,0.629c0.236,0.548-0.499,0.284,1.189,1.145
		c-0.071-0.829-0.75-0.825-1.07-1.145c-0.15-0.15-0.16-0.314-0.197-0.509L63.082,47.188L63.082,47.188z"/>
	<path fill-rule="evenodd" clip-rule="evenodd" fill="#BE906C" d="M72.651,73.277c0.11,0.338,0.046,0.955,0.003,1.301l0.512,0.025
		l0.048-1.33L72.651,73.277L72.651,73.277z"/>
	<path fill-rule="evenodd" clip-rule="evenodd" fill="#BE906C" d="M74.575,58.227c0.157,0.042,0.408,0.417,0.458-0.589l-0.422-2.81
		c0.006,0.018,0.014,0.042,0.019,0.059c0.105,0.336,0.061-0.034,0.083,0.434c0.021,0.428-0.142,0.599-0.075,1.057l0.101,1.304
		C74.724,57.881,74.646,58.036,74.575,58.227L74.575,58.227z"/>
	<path fill-rule="evenodd" clip-rule="evenodd" fill="#BE906C" d="M66.636,51.139c0.02-0.354-0.15-0.633-0.368-0.891
		c-0.401-0.475-0.407-0.234-0.741-0.479l-0.199-0.208l0.518,0.88C66.066,50.8,66.181,50.898,66.636,51.139L66.636,51.139z"/>
	<path fill-rule="evenodd" clip-rule="evenodd" fill="#BE906C" d="M72.34,75.554c-0.016,0.896-0.018,0.646-0.333,1.605
		c0.383-0.186,0.752-1.068,0.944-1.463L72.34,75.554L72.34,75.554z"/>
	<path fill-rule="evenodd" clip-rule="evenodd" fill="#BE906C" d="M67.564,51.319c-0.044-0.213,0.049-0.03-0.069-0.195l-0.416-0.457
		c-0.021,0.23-0.026,0.082,0.001,0.226c0.019,0.095,0.114,0.343,0.207,0.4C67.688,51.541,67.436,51.343,67.564,51.319L67.564,51.319
		z"/>
</g>
</svg>
