<?xml version="1.0" encoding="utf-8"?>
<!-- Generator: Adobe Illustrator 16.0.4, SVG Export Plug-In . SVG Version: 6.00 Build 0)  -->
<!DOCTYPE svg PUBLIC "-//W3C//DTD SVG 1.1//EN" "http://www.w3.org/Graphics/SVG/1.1/DTD/svg11.dtd">
<svg version="1.1" id="Ebene_1" xmlns="http://www.w3.org/2000/svg" xmlns:xlink="http://www.w3.org/1999/xlink" x="0px" y="0px"
	 width="172px" height="169px" viewBox="0 0 172 169" enable-background="new 0 0 172 169" xml:space="preserve">
<path fill-rule="evenodd" clip-rule="evenodd" fill="#916D48" stroke="#916D48" stroke-width="0.216" stroke-miterlimit="22.9256" d="
	M116.505,51.709c-1.495-0.243-2.27,0.674-3.535-0.278c0.762-0.195,1.993-0.043,2.622-0.377c1.945,0.097,4.236-0.216,6.225-0.288
	c4.767-0.174,12.893-0.464,16.797-2.873c2.358-1.455,3.795-4.889,4.659-8.414c1.091-4.453,1.411-6.49,6.523-6.65
	c0.213,0.192-0.334,0.126,0.513,0.245c-0.118-0.973,0.037-0.294-0.295-0.473l-0.221-0.135c0.041-0.296,0.11-0.249-0.174-0.178
	l-0.29-0.062c-0.017-0.25,0.043-0.185-0.223-0.133c0.305-0.301-0.121-0.313,0.286-0.246c0.292,0.351-0.141,0.283,0.642,0.281
	l0.108-1.039l1.849-3.877c0.096-1.551-5.794-3.729-8.228-5.681c-2.044-1.641-3.736-3.956-6.174-6.021l-0.959-0.846
	c3.694,1.289,7.694,5.504,10.469,7.953c1.433,1.265,4.158,2.526,5.104,4.079l-0.926,7.41l2.59,3.479
	c1.641,2.708,5.653,9.752,5.341,12.642c0.069,1.465,0.417,1.163-0.57,2.131c-1.707,1.675-3.353,2.583,0.304,5.454
	c0.254,0.2,0.043,0.061,0.378,0.262c-0.243,2.643-0.82,5.212-1.426,7.669c-0.891,3.617-1.064,3.557-2.867,6.513
	c-0.497-0.845-0.45-4.264-0.785-5.693l-1.534-5.012c-8.336,0.239-7.138-1.843-16.3-3.002c-6.593-0.833-11.688,0.219-17.961,0.873
	c0.247-0.699-0.117-0.239,1.318-1.18l-0.772-0.667c-0.578,0.433-1.632,1.419-1.969,2.061l-0.843,0.137
	c0.277-0.519,0.259-0.271,0.545-0.729c0.226-0.361,0.245-0.658,0.345-0.938c2.67-1.577,2.628-1.664,5.667-3.117
	c1.631-0.78,4.651-1.692,6.497-2.289c-6.528-0.584-17.979,1.297-21.303,0.413c-2.548-0.678-2.546-1.491-3.562-3.544
	c1.133-1.798,6.89,2.202,13.93,0.29c2.614-0.71,4.004-0.948,6.926-1.202c5.416-0.471,7.246-2.29,8.174-8.108
	c0.746-4.675-0.01-4.5-0.062-7.504c-0.045-2.646,1.126-4.384,2.874-5.232l6.596,0.004c-0.869,0.446-9.503-2.79-9.085,5.91
	c0.138,2.862,0.451,4.306-0.041,7.342c-1.562,9.637-7.76,6.943-14.981,9.002c-6.71,1.913-10.561-1.363-14.033-0.405
	c-0.352,0.834,1.394,2.375,2.07,2.709c3.028,1.499,10.86,0.215,14.731,0.06c8.268-0.33,11.994,0.209,20.009,0.94
	c-1.604-0.916-9.485-1.537-11.703-1.575C127.985,51.77,117.068,51.827,116.505,51.709L116.505,51.709z M148.56,31.133l0.43,0.379
	c0.209,0.31,0.382,0-0.047,0.39c-0.031-0.343,0.267-0.176-0.204-0.325c-0.001-0.247,0.052-0.178-0.215-0.139
	c0.02-0.272,0.063-0.19-0.231-0.122c0.003-0.274,0.062-0.185-0.244-0.204c-1.359-1.229-2.782-2.089-4.51-2.827l-0.67-0.372
	C144.288,27.751,147.964,30.476,148.56,31.133L148.56,31.133z"/>
<path fill-rule="evenodd" clip-rule="evenodd" fill="#916D48" stroke="#916D48" stroke-width="0.216" stroke-miterlimit="22.9256" d="
	M68.947,113.854c0.307,0,0.232,0.07,0.18-0.247c0.573,0.07,0.577-0.057,0.683,0.58l-2.544,6.938
	c-0.779,2.229-1.71,4.901-2.654,6.885c-1.065,2.238-2.021,4.358-3.09,6.46c-1.279,2.513-3.696,6.561-5.24,8.896
	c-3.194,4.83-7.879,10.133-12.37,13.791c-1.226,0.998-1.24,1.217-2.917,2.39l-0.595,0.453c-0.013,0.012-0.189,0.33-0.271,0.263
	l3.255-3.631c1.233-1.222,2.085-2.158,3.13-3.586c6.452-8.809,10.819-14.423,15.041-25.504c-0.951,0.647-3.878,3.435-4.704,4.202
	c-2.658,2.472-6.063,6.381-8.696,8.979c-4.452,4.392-8.882,8.173-14.263,11.901c-2.576,1.784-8.873,5.415-11.314,6.255l1.336-0.862
	c0.534-0.285,0.754-0.42,1.326-0.794c0.91-0.595,1.631-0.945,2.549-1.519c5.104-3.188,9.42-7.071,13.069-11.852
	c2.361-3.094,4.295-6.504,6.474-10.145l5.843-10.687l-2.895,10.91c3.382-3.048,6.777-6.176,9.982-9.382
	c1.89-1.891,2.916-3.076,4.622-5.098C65.953,118.187,68.145,115.326,68.947,113.854L68.947,113.854z"/>
<path fill-rule="evenodd" clip-rule="evenodd" fill="#916D48" stroke="#916D48" stroke-width="0.216" stroke-miterlimit="22.9256" d="
	M112.436,81.428c-0.39,0.62-0.924,1.107-1.446,1.764c-2.404,3.024-4.111,6.207-5.804,9.75c-0.734,1.536-1.177,2.815-1.842,4.337
	c-1.165,2.666-2.433,6.411-3.163,9.393c-1.417,5.788,0.037,3.569-3.113,9.259c-2.432,4.393-4.859,7.481-7.5,11.23l-2.871,3.325
	c-3.26,3.138-9.264,9.242-13.02,11.539c6.282-6.806,11.228-13.218,15.501-21.786c1.381-2.771,2.46-5.707,3.641-8.729
	c4.24-10.851,4.093-15.109,12.971-24.327C106.805,86.13,111.119,82.028,112.436,81.428L112.436,81.428z"/>
<path fill-rule="evenodd" clip-rule="evenodd" fill="#916D48" stroke="#916D48" stroke-width="0.216" stroke-miterlimit="22.9256" d="
	M98.172,92.731c-1.11,3.376-5.431,11.32-7.526,16.605c-2.512,6.337-3.892,10.312-7.8,16.056c-3.433,5.045-4.922,5.926-8.54,9.487
	c-4.213,4.147-9.917,8.631-14.667,12.201c-0.473,0.355-1.022,0.769-1.599,1.135c8.323-7.738,15.965-16.064,21.254-26.555
	c1.366-2.709,2.437-5.471,3.932-8.092c3.241-5.682,5.655-9.133,10.002-13.847c0.647-0.702,4.789-6.607,4.85-6.885
	C98.092,92.772,98.14,92.766,98.172,92.731L98.172,92.731z"/>
<path fill-rule="evenodd" clip-rule="evenodd" fill="#916D48" stroke="#916D48" stroke-width="0.216" stroke-miterlimit="22.9256" d="
	M16.882,152.347l-0.756,0.275l-1.077-0.582c0.04-0.026,0.1-0.113,0.118-0.083l0.225-0.2c0.029-0.03,0.078-0.095,0.104-0.123
	s0.065-0.088,0.099-0.132l5.448-4.138c1.933-1.511,3.497-2.812,5.169-4.375c1.568-1.463,3.247-3.233,4.722-4.818
	c3.993-4.292,7.702-8.233,11.72-12.321c1.226-1.248,11.487-10.933,12.247-11.427l-1.851,2.737c-2.471,3.662-3.426,6.234-5.219,9.098
	c-1.103,1.762-3.769,5.34-5.238,6.841c-1.111,1.135-1.906,2.178-3.379,3.627c-2.398,2.358-7.636,6.861-10.483,8.606
	C25.898,147.069,19.744,151.227,16.882,152.347L16.882,152.347z"/>
<path fill-rule="evenodd" clip-rule="evenodd" fill="#916D48" stroke="#916D48" stroke-width="0.216" stroke-miterlimit="22.9256" d="
	M113.586,112.43c0.132-0.062,0.004-0.08,0.497,0.436l0.462,0.469c0.03,0.028,0.083,0.076,0.109,0.1l0.236,0.205
	c0.285,0.413,1.54,3.804,2.568,4.66l1.884-7.529c1.339-1.301,1.568-1.644,1.495-2.934c0.151-1.005,1.657-2.594,2.349-3.441
	c3.744-4.587,4.205-7.059,4.762-12.756l0.362,3.26c0.278,3.947-1.459,6.046-2.377,8.728c-1.353,3.954-1.315,8.435-2.401,12.414
	c-1.013,3.71-3.23,6.907-4.655,10.205c-0.967,2.238-3.509,8.377-5.172,9.721l1.013-2.735
	C118.607,121.86,113.526,114.152,113.586,112.43L113.586,112.43z"/>
<path fill-rule="evenodd" clip-rule="evenodd" fill="#916D48" stroke="#916D48" stroke-width="0.216" stroke-miterlimit="22.9256" d="
	M102.373,31.741c-0.138,1.323-0.852,2.21-0.874,4.31c-0.074,6.804,8.992,10.75,13.877,3.279c1.968-3.01,1.348-3.354,0.428-5.415
	c-0.326-0.729-0.311-1.305-0.855-1.515c2.007-1.485,9.498-0.55,6.058,2.661c-0.753,0.703-1.382,1.232-2.166,1.899
	c-2.576,2.189-4.308,6.609-9.229,7.199c-4.325,0.518-6.624-1.667-9.042-3.119c-0.857-0.514-1.567-1.013-2.407-1.655
	c-4.829-3.697-8.012-2.472-12.311-0.608c0.019-0.439,0.101-0.418,0.605-0.794c1.105-0.823,1.72-1.061,2.965-1.704l-1.844,0.122
	C87.996,35.869,97.762,30.196,102.373,31.741L102.373,31.741z"/>
<path fill-rule="evenodd" clip-rule="evenodd" fill="#916D48" stroke="#916D48" stroke-width="0.216" stroke-miterlimit="22.9256" d="
	M109.093,101.559c-0.391,0.691-0.711,1.068-1.182,1.53c-0.378,0.37-0.934,0.774-1.063,1.425c-0.166,0.839,0.295,1.312,0.678,1.682
	c0.454,0.44,0.776,0.858,1.283,1.182l-0.271,0.646c-0.764,1.289-1.595,2.554-2.348,4.126c-0.725,1.511-1.17,2.996-1.846,4.43
	c-0.044,0.027-0.114,0.012-0.134,0.079l-0.835,0.805c-0.4,0.385-0.597,0.513-0.991,0.952l-2,1.907
	c0.189-0.582,0.376-2.92,0.287-3.333c-0.295-1.458,0.655-7.384,1.034-8.962c0.702-2.926,1.337-4.972,2.444-7.469
	c1.39-3.136,5.934-10.299,8.308-11.649C110.605,92.862,108.879,96.927,109.093,101.559L109.093,101.559z M100.247,120.486
	l-0.007-0.152L100.247,120.486L100.247,120.486z"/>
<path fill-rule="evenodd" clip-rule="evenodd" fill="#916D48" stroke="#916D48" stroke-width="0.216" stroke-miterlimit="22.9256" d="
	M46.117,109.521c-0.799,1.62-1.718,3.129-2.466,4.771c-0.83,1.823-1.443,3.131-2.052,5.206c-0.704,2.399-0.924,3.185-2.355,4.881
	c-1.097,1.3-1.531,1.67-2.825,2.663c-0.403,0.31-0.535,0.488-0.965,0.801c-3.792,2.753-8.986,6.828-13.543,8.217
	c3.458-2.915,8.405-7.065,11.037-10.895c0.991-1.442,1.888-2.842,2.831-4.419c0.957-1.602,1.812-3.019,2.807-4.445
	c1.122-1.607,2.28-2.578,3.466-3.779l6.716-7.649L46.117,109.521L46.117,109.521z"/>
<path fill-rule="evenodd" clip-rule="evenodd" fill="#916D48" stroke="#916D48" stroke-width="0.216" stroke-miterlimit="22.9256" d="
	M129.243,108.831c0.652-0.769,1.435-2.716,1.814-3.791c1.492-4.232,0.312-11.237-0.03-15.46l2.808,10.286
	c0.463,3.941-0.1,7.964-1.194,11.52c-1.007,3.273-2.457,6.173-3.466,9.615c-0.512,1.746-0.979,3.361-1.396,5.138
	c-0.284,1.215-0.672,4.495-0.989,5.339l0.432-8.368c0.637-7.684,0.023-10.029,0.156-16.897c0.085-4.424,0.913-4.1,1.781-6.616
	C128.944,101.756,128.149,107.03,129.243,108.831L129.243,108.831z"/>
<path fill-rule="evenodd" clip-rule="evenodd" fill="#916D48" stroke="#916D48" stroke-width="0.216" stroke-miterlimit="22.9256" d="
	M151.981,142.168c-0.448-3.593,0.463-5.312-1.569-10.632c-1.28-3.35-1.598-2.854-2.203-3.795c-0.341-0.53-0.483-4.526-0.597-5.446
	c-0.81-6.582-2.043-10.611-4.909-16.282c-0.708-1.399-1.208-1.608-0.93-2.133l2.833,3.589c0.803,1.181,1.618,2.711,2.296,4.062
	c1.447,2.885,2.67,5.49,3.755,8.78c2.141,6.49,2.503,10.017,2.007,16.542C152.594,137.789,151.946,141.934,151.981,142.168
	L151.981,142.168z"/>
<path fill-rule="evenodd" clip-rule="evenodd" fill="#916D48" stroke="#916D48" stroke-width="0.216" stroke-miterlimit="22.9256" d="
	M77.913,73.109c0.04-0.15,0.133-0.05,0.256,0.077c-0.138,0.036-1.882,2.067-2.083,2.319c-1.31,1.637-4.823,5.42-6.267,6.813
	c-7.48,7.215-9.554,9.181-15.294,19.521c-1.215,2.188-5.342,8.723-6.89,10.354l3.103-5.654c4.061-7.535,2.708-8.248,9.002-16.979
	c4.391-6.09,10.816-11.392,17.049-15.644L77.913,73.109L77.913,73.109z"/>
<path fill-rule="evenodd" clip-rule="evenodd" fill="#916D48" stroke="#916D48" stroke-width="0.216" stroke-miterlimit="22.9256" d="
	M142.607,116.985c-0.193-1.873-1.691-6.146-2.316-8.212c-0.857-2.837-1.99-5.127-2.849-7.599c4.7,7.541,8.211,15.232,8.656,24.493
	c0.093,1.938-0.075,8.933-0.772,10.245l-1.506-7.707c-1.016-4.764-2.642-9.094-5.077-13.108c-1.14-1.88-2.732-3.435-3.958-4.963
	l4.326,3.004C140.236,114.186,141.508,115.927,142.607,116.985L142.607,116.985z"/>
<path fill-rule="evenodd" clip-rule="evenodd" fill="#916D48" stroke="#916D48" stroke-width="0.216" stroke-miterlimit="22.9256" d="
	M99.124,63.362c-0.231,0.403-2.727,2.852-3.212,3.336c-0.99,0.987-2.011,2.29-3.009,3.552c3.27-2.784,5.979-5.163,10.127-6.862
	l3.071-1.188c0.491-0.182,0.446-0.246,1.073-0.372c-1.105,0.914-3.13,1.899-4.799,3.203c-6.617,5.174-6.132,4.691-12.338,11.35
	c-3.891,4.174-6.927,8.893-9.938,13.746l-2.09,3.744l1.136-3.64C83.052,80.493,90.642,69.764,99.124,63.362L99.124,63.362z"/>
<path fill-rule="evenodd" clip-rule="evenodd" fill="#916D48" stroke="#916D48" stroke-width="0.216" stroke-miterlimit="22.9256" d="
	M108.751,76.888c-1.438,1.345-2.736,2.499-4.213,3.909c-4.519,4.316-13.034,10.562-18.351,14.355
	c-2.718,1.94-6.054,4.143-9.013,5.827l-0.422-0.055c2.819-2.179,5.898-4.156,8.51-6.872c1.262-1.312,2.542-2.756,3.747-4.389
	c0.954-1.292,0.461-1.102,2.116-1.943c3.462-1.764,9.632-5.952,12.463-8.041c0.497-0.367,8.026-6.276,8.844-7.057
	c0.202-0.193,0.008-0.272,0.35-0.009L108.751,76.888L108.751,76.888z"/>
<path fill-rule="evenodd" clip-rule="evenodd" fill="#916D48" stroke="#916D48" stroke-width="0.216" stroke-miterlimit="22.9256" d="
	M103.318,39.179c2.192,4.702,8.282,4.871,10.8,0.482c1.687-2.938,0.152-5.357-0.505-6.899l-2.841,0.172l0.598,1.042
	c0.885,1.401,0.427,3.875-0.758,4.648c-3.738,2.44-6.257-3.656-3.413-5.53c-0.49-0.354-0.818-0.389-1.452-0.466
	c-0.552-0.067-0.921-0.149-1.489-0.191C103.144,34.835,102.001,36.355,103.318,39.179L103.318,39.179z M114.949,32.401
	c0.544,0.21,0.529,0.786,0.855,1.515c0.92,2.061,1.54,2.405-0.428,5.415c-4.885,7.471-13.951,3.525-13.877-3.279
	c0.022-2.1,0.736-2.987,0.874-4.31c0.992,0.135,1.844,0.458,2.79,0.67c1.074,0.24,2.043,0.344,3.212,0.401
	C110.29,32.906,113.766,32.238,114.949,32.401L114.949,32.401z"/>
<path fill-rule="evenodd" clip-rule="evenodd" fill="#916D48" stroke="#916D48" stroke-width="0.216" stroke-miterlimit="22.9256" d="
	M120.68,62.823c-0.928,0.408-2.815,1.751-4.08,2.476c-5.285,3.031-7.084,3.402-12.37,7.774c-2.458,2.034-4.53,4.259-7.122,6.307
	c-2.195,1.734-5.074,4.701-7.41,5.889l2.609-2.572c0.709-0.744,1.552-1.869,2.254-2.854c1.412-1.979,2.894-3.971,4.465-5.794
	c2.37-2.749,4.808-5.545,7.998-7.548c0.926-0.581,2.021-1.479,3.033-1.913l-3.562,2.976c-0.183,0.169-3.188,3.527-3.025,3.686
	l8.171-4.722L120.68,62.823L120.68,62.823z"/>
<path fill-rule="evenodd" clip-rule="evenodd" fill="#916D48" stroke="#916D48" stroke-width="0.216" stroke-miterlimit="22.9256" d="
	M98.807,88.519c-0.218,0.161-0.294,0.181-0.302,0.187l-0.254,0.244c-1.355,1.96-3.389,3.631-4.803,5.505
	c-1.835,2.432-3.072,3.709-5.105,6.568c-0.557,0.782-1.007,1.434-1.586,2.305c-1.981,2.984-3.879,6.49-5.657,10.075
	c-0.854,1.721-1.539,3.509-2.469,5.3c-0.666,1.282-1.953,4.106-2.691,4.977c3.264-8.447,4.331-11.906,8.612-20.088
	c2.784-5.319,4.738-8.298,9.451-12.117l3.363-2.842c0.473-0.204,0.764-0.091,0.691-0.01l0.381-0.826
	c0.06-0.072,2.024-1.228,2.08-1.461c0.039-0.164,0.116-0.07,0.207-0.011c0.008-0.042,0.051,0.082,0.086,0.114L98.807,88.519
	L98.807,88.519z"/>
<path fill-rule="evenodd" clip-rule="evenodd" fill="#916D48" stroke="#916D48" stroke-width="0.216" stroke-miterlimit="22.9256" d="
	M123.057,33.377c-1.394-1.848,1.198-3.143-6.01-3.126c-3.362,0.008-5.421,0.009-8.644-0.617l-16.065-0.192
	c3.195-1.222,4.757-1.765,8.809-1.648c3.246,0.093,6.603,0.817,9.889,0.866c6.27,0.093,15.477-3.37,13.169,3.058
	C123.911,32.539,123.681,33.178,123.057,33.377L123.057,33.377z"/>
<path fill-rule="evenodd" clip-rule="evenodd" fill="#916D48" stroke="#916D48" stroke-width="0.216" stroke-miterlimit="22.9256" d="
	M84.902,98.567c-0.679,1.257-1.98,2.868-2.928,4.389c-4.782,7.676-5.093,15.628-10.001,25.88c-1.018,2.125-4.498,6.976-6.165,8.165
	c1.73-2.65,4.262-6.238,5.353-9.158c4.292-11.486,3.824-18.981,11.827-27.584C83.703,99.49,84.076,99.13,84.902,98.567
	L84.902,98.567z"/>
<path fill-rule="evenodd" clip-rule="evenodd" fill="#916D48" stroke="#916D48" stroke-width="0.216" stroke-miterlimit="22.9256" d="
	M112.722,113.712c0.762,1.551,2.505,5.646,1.601,7.634c-2.663,5.854-2.362,4.844-5.309,9.358c-0.677,1.037-1.255,1.97-1.869,3.077
	c-2.009,3.62-1.85,4.505-2.944,6.707c1.713-7.745,0.936-6.161,4.329-13.271C111.559,120.872,112.087,120.721,112.722,113.712
	L112.722,113.712z"/>
<path fill-rule="evenodd" clip-rule="evenodd" fill="#916D48" stroke="#916D48" stroke-width="0.216" stroke-miterlimit="22.9256" d="
	M148.055,100.126c0.01-3.401-5.085-9.845-6.096-12.635c-0.604-1.667-0.318-2.473-0.456-4.257c-0.413-5.343-2.641-8.188-2.708-11.285
	l1.245,3.5c1.399,3.711,4.101,5.465,5.002,9.135c0.604,2.458,0.628,5.466,1.292,8.08C146.895,94.865,148.014,97.968,148.055,100.126
	L148.055,100.126z"/>
<path fill-rule="evenodd" clip-rule="evenodd" fill="#916D48" stroke="#916D48" stroke-width="0.216" stroke-miterlimit="22.9256" d="
	M124.733,76.771c0.01-0.051,0.05,0.109,0.087,0.155c-0.274,0.058-1.522,2.736-1.799,3.273c-2.073,4.027-2.455,6.533-5.327,9.523
	c-3.556,3.701-6.138,5.404-6.726,13.123l1.018-8.582c0.998-2.475,1.873-4.806,3.239-6.838c1.461-2.175,2.393-1.379,5.167-4.912
	c1.547-1.971,2.051-2.869,3.195-4.409C124.151,77.346,124.525,76.585,124.733,76.771L124.733,76.771z"/>
<path fill-rule="evenodd" clip-rule="evenodd" fill="#916D48" stroke="#916D48" stroke-width="0.216" stroke-miterlimit="22.9256" d="
	M87.741,70.292c-0.214,0.355-0.291,0.423-0.756,0.74c-2.295,1.563-2.958,1.959-5.214,3.794c-2.362,1.92-5.845,5.413-7.699,8.035
	c-1.794,2.537-4.517,5.807-6.462,8.79c2.364-5.112,7.448-12.109,11.117-16.158c2.251-2.484,4.385-4.476,7.059-6.733
	c1.504-1.269,6.444-4.778,8.2-5.501c-0.484,0.595-1.406,1.241-2.142,1.849c-0.837,0.691-1.494,1.063-2.181,1.7
	c-0.895,0.828-2.865,2.674-3.571,3.705l-0.155,0.248c-0.014-0.029-0.053,0.086-0.078,0.13l0.94-0.382
	C87.088,70.417,87.369,70.346,87.741,70.292L87.741,70.292z"/>
<path fill-rule="evenodd" clip-rule="evenodd" fill="#916D48" stroke="#916D48" stroke-width="0.216" stroke-miterlimit="22.9256" d="
	M51.492,90.142c2.551-3.813,3.166-5.439,6.499-9.169c-0.539,2.72-2.483,4.418-1.074,7.216c-2.722,2.948-8.872,9.504-12.416,10.526
	L51.492,90.142L51.492,90.142z"/>
<path fill-rule="evenodd" clip-rule="evenodd" fill="#916D48" stroke="#916D48" stroke-width="0.216" stroke-miterlimit="22.9256" d="
	M118.288,101.476c-0.678-0.031-0.15-0.115-0.899-0.393c0.531-3.104,3.219-7.65,5.476-9.906c1.336-1.335,2.655-2.45,3.832-3.94
	c0.472-0.598,2.529-4.092,2.427-4.946c-1.729,6.656-2.249,9.966-7.529,15.038C120.31,98.562,119.459,99.937,118.288,101.476
	L118.288,101.476z"/>
<path fill-rule="evenodd" clip-rule="evenodd" fill="#916D48" stroke="#916D48" stroke-width="0.216" stroke-miterlimit="22.9256" d="
	M136.269,113.03c0.765,0.354,1.424,1.476,1.824,2.185c1.054,1.868,0.954,1.291,0.509,2.46c-0.661,1.733-0.782,4.888-0.785,6.923
	c-0.008,6.862,1.063,8.526,1.561,13.677c-0.535-0.884-0.699-1.76-1.015-2.819C135.55,126.037,134.955,122.937,136.269,113.03
	L136.269,113.03z"/>
<path fill-rule="evenodd" clip-rule="evenodd" fill="#916D48" stroke="#916D48" stroke-width="0.216" stroke-miterlimit="22.9256" d="
	M152.189,115.228c-0.438-1.101-0.625-3.029-1.079-4.35c-2.305-6.697-7.045-10.031-10.01-16.873
	c-0.345-0.796-2.946-7.062-2.265-8.026l3.772,7.05c2.233,4.114,5.946,9.279,7.677,13.531
	C151.149,108.685,152.314,112.606,152.189,115.228L152.189,115.228z"/>
<path fill-rule="evenodd" clip-rule="evenodd" fill="#916D48" stroke="#916D48" stroke-width="0.216" stroke-miterlimit="22.9256" d="
	M138.76,99.201c-6.738-9.92-8.437-14.496-6.365-27.137c0.146-0.891,0.54-2.568,1.031-3.391c0.117-0.195,0.156-0.224,0.243-0.329
	l-0.728,5.169c-0.195,2.022,1.574,14.999,1.977,16.596c0.41,1.622,2.659,6.025,3.454,7.867c0.19,0.439,0.108,0.315,0.275,0.597
	c0.018,0.029,0.05,0.078,0.066,0.104l0.227,0.273L138.76,99.201L138.76,99.201z"/>
<path fill-rule="evenodd" clip-rule="evenodd" fill="#916D48" stroke="#916D48" stroke-width="0.216" stroke-miterlimit="22.9256" d="
	M55.996,91.585c-0.358,0.847-3.356,5.341-3.988,6.145c-2.792,3.554-10.874,14.353-14.114,16.421l4.1-6.104
	c4.171-6.791,2.853-6.176,9.167-11.341c1.899-1.554,2.374-2.425,3.72-3.882C55.369,92.296,55.556,92.021,55.996,91.585
	L55.996,91.585z"/>
<path fill-rule="evenodd" clip-rule="evenodd" fill="#916D48" stroke="#916D48" stroke-width="0.216" stroke-miterlimit="22.9256" d="
	M85.766,62.053c-0.033,0.023-0.076,0.061-0.094,0.076c-0.018,0.016-0.071,0.058-0.092,0.079l-1.115,1.177
	c-3.183,2.849-6.421,2.119-12.419,5.782c-2.31,1.41-4.268,2.642-6.296,4.136c-3.087,2.275-4.221,3.817-5.581,4.839
	c4.445-5.294,4.947-6.362,10.492-10.362c7.201-5.196,8.676-1.551,14.254-5.366c0.836-0.572,0.489-0.679,0.762-0.489
	C85.685,61.879,85.729,62.017,85.766,62.053L85.766,62.053z"/>
<path fill-rule="evenodd" clip-rule="evenodd" fill="#916D48" stroke="#916D48" stroke-width="0.216" stroke-miterlimit="22.9256" d="
	M70.011,106.924c-0.233,0.187-0.338,0.242-0.478,0.53c-1.06,0.344-1.701,0.991-2.875,2.286c-0.408,0.449-0.24,1.126-0.231,1.068
	c0.003-0.025,0.025,0.092,0.029,0.14c-0.64,0.301-0.645,0.221-1.017,0.886c-0.165,0.397-3.091,2.935-3.653,3.456
	c-5.017,4.653-5.529,7.334-8.84,12.639l4.605-9.631c0.494-0.815,5.582-7.158,6.349-7.664c0.374-0.209,0.177-0.036,0.49-0.348
	l0.732-1.012l0.67,0.565c0.643-0.488,1.087-0.669,1.117-1.508c0.02-0.57-0.199-0.504-0.019-0.877l0.482-0.542
	c0.013-0.054,0.058-0.059,0.087-0.088c0.226,0.257,0.278,0.385,0.474,0.43l0.418-0.067c0.119-0.761,0.025-0.47-0.276-0.971
	l0.954-1.225c0.341-0.56,1.233-1.59,1.688-2.158c0.631-0.786,1.198-1.56,1.777-2.148C72.272,102.188,70.813,106.157,70.011,106.924
	L70.011,106.924z"/>
<path fill-rule="evenodd" clip-rule="evenodd" fill="#916D48" stroke="#916D48" stroke-width="0.216" stroke-miterlimit="22.9256" d="
	M125.169,66.979c-1.015,0.974-0.944,1.351-2.738,2.908c-1.186,1.03-2.028,1.437-3.372,2.284
	c-6.671,4.206-10.033,12.161-17.625,15.998l5.429-5.923c0.885-1.017,1.72-1.959,2.546-3.112c5.28-7.369,9.932-6.913,14.999-11.684
	C125.216,66.691,124.886,66.66,125.169,66.979L125.169,66.979z"/>
<path fill-rule="evenodd" clip-rule="evenodd" fill="#916D48" stroke="#916D48" stroke-width="0.216" stroke-miterlimit="22.9256" d="
	M60.285,104.598l-0.229,0.108c-0.34-0.099-0.299-0.184-0.218,0.15c-0.343-0.078-0.232-0.126-0.232,0.26
	c-0.413,0.646-1.513,1.269-2.08,1.849c-0.856,0.875-1.312,1.207-2.166,1.901c-3.006,2.449-5.335,5.68-7.708,8.372l-3.519,4.282
	c3.225-5.601,5.068-8.712,9.47-13.707c0.897-1.019,2.82-2.965,3.848-3.698c0.296-0.001,0.244,0.08,0.208-0.195
	c0.269,0.039,0.211,0.099,0.185-0.169c0.271,0.033,0.224,0.105,0.204-0.145c0.301,0.052,0.265,0.136,0.213-0.141
	c0.311,0.076,0.261,0.149,0.202-0.156c0.307,0.065,0.254,0.13,0.183-0.172c1.101-0.076-0.134,0.465,1.13,0.06
	c0.441-0.141,0.139-0.2,0.71-0.213l0.599,0.163C61.272,103.995,60.753,103.903,60.285,104.598L60.285,104.598z"/>
<path fill-rule="evenodd" clip-rule="evenodd" fill="#916D48" stroke="#916D48" stroke-width="0.216" stroke-miterlimit="22.9256" d="
	M102.927,48.042l-0.258,1.474c-4.731-0.586-6.436-2.832-11.89-2.053c-2.733,0.391-8.489,1.703-11.524,2.326
	c1.471-0.637,9.764-3.646,11.231-3.924C95.526,44.911,99.233,46.155,102.927,48.042L102.927,48.042z"/>
<path fill-rule="evenodd" clip-rule="evenodd" fill="#916D48" stroke="#916D48" stroke-width="0.216" stroke-miterlimit="22.9256" d="
	M64.99,63.877c-0.356-0.109-0.284-0.16-0.17,0.196c-0.252,0.152-0.216-0.316-0.219,0.285c-0.298-0.04-0.239-0.103-0.175,0.192
	c-0.304-0.062-0.245-0.117-0.161,0.183c-0.253,0.171-0.308-0.327-0.203,0.324c-0.291-0.029-0.232-0.09-0.159,0.196
	c-0.358-0.062-0.25-0.105-0.146,0.271c-0.086,0.662,0.03,0.182-0.297,0.716c-1.251,2.04-1.283,2.179-2.423,4.469
	c-2.5,5.022-4,8.966-7.689,13.697c-0.917,1.175-0.757,1.279-0.943,0.976l2.955-5.675c2.53-5.091,4.278-13.398,8.927-16.801
	c0.139,0.66-0.161,0.104,0.309,0.683C64.724,63.745,64.817,63.758,64.99,63.877L64.99,63.877z"/>
<path fill-rule="evenodd" clip-rule="evenodd" fill="#916D48" stroke="#916D48" stroke-width="0.216" stroke-miterlimit="22.9256" d="
	M64.092,101.625l-0.655,0.187l-1.555-1.655c0.652-0.355,1.06-0.487,1.524-1.198c4.8-3.524,10.783-6.65,13.265-12.497
	c-2.568,5.099-2.106,5.225-5.907,9c-0.249,0.247-0.596,0.501-0.723,0.791c-0.133,0.308-0.082,0.059-0.008,0.251l2.738-0.002
	l-0.582,0.382c-0.196,0.109-0.39,0.195-0.59,0.298c-0.46,0.237-0.704,0.365-1.169,0.599C66.494,99.755,66.844,99.95,64.092,101.625
	L64.092,101.625z"/>
<path fill-rule="evenodd" clip-rule="evenodd" fill="#916D48" stroke="#916D48" stroke-width="0.216" stroke-miterlimit="22.9256" d="
	M128.175,66.25c-0.443,1.083-1.129,2.203-1.74,3.226c-2.078,3.477-3.35,5.563-6.306,8.363c-1.844,1.746-3.253,2.901-4.849,4.867
	c-0.967,1.191-3.465,5.162-4.059,5.702c1.374-2.564,3.751-7.266,5.379-9.502c0.685-0.941,1.474-1.764,2.157-2.618
	c0.683-0.853,1.621-1.751,2.449-2.495c0.843-0.758,1.602-1.517,2.49-2.284C125.882,69.622,127.347,67.122,128.175,66.25
	L128.175,66.25z"/>
<path fill-rule="evenodd" clip-rule="evenodd" fill="#916D48" stroke="#916D48" stroke-width="0.216" stroke-miterlimit="22.9256" d="
	M100.784,20.139c-6.301,0.187-6.546-0.505-11.914,2.05c-1.682,0.8-2.874,1.831-4.349,2.716l-4.753,2.325
	c0.537-0.625,1.204-1.094,1.983-1.733c0.744-0.61,1.335-1.207,2.066-1.823c1.301-1.097,2.308-2.462,4.162-3.439
	C91.653,18.298,98.041,18.46,100.784,20.139L100.784,20.139z"/>
<path fill-rule="evenodd" clip-rule="evenodd" fill="#916D48" stroke="#916D48" stroke-width="0.216" stroke-miterlimit="22.9256" d="
	M96.371,51.283c-2.196,0.87-4.852,0.127-7.222,0.528c-2.459,0.414-3.393,1.405-5.202,2.39c-2.858,1.556-4.626,2.254-7.384,4.107
	c-0.4,0.269-0.738,0.498-1.152,0.788c-1.212,0.848-0.859,0.857-1.193,0.636l2.325-1.979c2.767-2.309,2.334-1.684,4.89-3.413
	c3.008-2.035,4.593-4.513,8.045-4.428C91.544,49.963,92.689,50.877,96.371,51.283L96.371,51.283z"/>
<path fill-rule="evenodd" clip-rule="evenodd" fill="#916D48" stroke="#916D48" stroke-width="0.216" stroke-miterlimit="22.9256" d="
	M83.73,66.369c0.04-0.171,0.108-0.075,0.207-0.003c0.009-0.046,0.052,0.092,0.088,0.13c-0.403,0.24-0.56,0.667-0.956,1.155
	c-0.333,0.411-0.641,0.718-1.026,1.084c-2.796,2.662-4.91,2.824-8.161,4.217c-4.865,2.085-6.252,4.803-8.964,7.604l3.069-5.195
	c2.243-3.068,9.662-4.59,13.591-7.265l1.98-1.546L83.73,66.369L83.73,66.369z"/>
<path fill-rule="evenodd" clip-rule="evenodd" fill="#916D48" stroke="#916D48" stroke-width="0.216" stroke-miterlimit="22.9256" d="
	M150.664,95.303c-0.211-3.945-0.359-9.802-1.502-13.246c-1.162-3.499-3.935-6.606-3.999-10.689l1.241,2.666
	c1.012,2.031,3.021,3.247,3.967,7.16C150.952,83.601,151.411,93.3,150.664,95.303L150.664,95.303z"/>
<path fill-rule="evenodd" clip-rule="evenodd" fill="#916D48" stroke="#916D48" stroke-width="0.216" stroke-miterlimit="22.9256" d="
	M151.799,79.486c-0.823-2.096-2.674-6.052-3.901-7.831c-1.344-1.949-2.196-6.599-2.323-9.567l1.527,0.469l2.141,8.813
	C149.922,72.902,151.812,77.667,151.799,79.486L151.799,79.486z"/>
<path fill-rule="evenodd" clip-rule="evenodd" fill="#916D48" stroke="#916D48" stroke-width="0.216" stroke-miterlimit="22.9256" d="
	M144.522,78.741c-0.108-0.386-0.688-1.284-0.985-1.841c-2.641-4.952-4.224-10.639-4.569-16.443l2.457,0.698l0.483,9.758
	C142.467,73.527,143.599,76.908,144.522,78.741L144.522,78.741z"/>
<path fill-rule="evenodd" clip-rule="evenodd" fill="#916D48" stroke="#916D48" stroke-width="0.216" stroke-miterlimit="22.9256" d="
	M134.731,59.732c-0.41,1.751-2.144,4.918-3.055,6.321c-1.924,2.961-2.283,2.839-4.269,4.892l5.097-11.527L134.731,59.732
	L134.731,59.732z"/>
<path fill-rule="evenodd" clip-rule="evenodd" fill="#916D48" stroke="#916D48" stroke-width="0.216" stroke-miterlimit="22.9256" d="
	M131,122.83c0.042-2.212,0.425-3.435,1.072-5.302c0.302-0.871,1.382-3.5,2.121-4.151c-2.023,8.825-1.509,11.753-1.415,20.462
	L131,122.83L131,122.83z"/>
<path fill-rule="evenodd" clip-rule="evenodd" fill="#916D48" stroke="#916D48" stroke-width="0.216" stroke-miterlimit="22.9256" d="
	M106.782,22.074c-2.063,0.174-3.846,0.107-5.861,0.475c-4.295,0.785-11.231,2.896-15.499,4.112
	c-0.438-0.289-0.189-0.077,0.842-0.713c3.48-2.146,4.963-2.203,8.854-3.169c1.814-0.451,3.768-0.954,5.567-1.265
	C102.313,21.233,105.461,21.434,106.782,22.074L106.782,22.074z"/>
<path fill-rule="evenodd" clip-rule="evenodd" fill="#916D48" stroke="#916D48" stroke-width="0.216" stroke-miterlimit="22.9256" d="
	M128.901,72.816c0.483-0.792,2.047-3.225,2.862-3.762c-0.41,3.06-2.574,6.927-3.839,9.335c-0.851,1.618-3.989,6.74-5.022,8.019
	l2.102-4.405C126.546,78.694,126.969,75.983,128.901,72.816L128.901,72.816z"/>
<path fill-rule="evenodd" clip-rule="evenodd" fill="#916D48" stroke="#916D48" stroke-width="0.216" stroke-miterlimit="22.9256" d="
	M103.893,117.613l-0.198,0.522c0.009,0.36-1.754,7.165-2.006,8.239c-0.683,2.912-0.82,6.145-0.922,9.24l-0.515-14.604
	c0.773-0.396,1.081-0.903,1.942-1.726c0.452-0.433,1.45-1.358,1.667-1.827L103.893,117.613L103.893,117.613z"/>
<path fill-rule="evenodd" clip-rule="evenodd" fill="#916D48" stroke="#916D48" stroke-width="0.216" stroke-miterlimit="22.9256" d="
	M99.649,124.331c-2.747,2.386-6.43,5.153-8.426,8.199c-0.743,1.134-1.375,2.222-2.043,3.358l4.396-8.073
	c0.574-0.889,4.927-6.169,5.995-6.64L99.649,124.331L99.649,124.331z"/>
<path fill-rule="evenodd" clip-rule="evenodd" fill="#916D48" stroke="#916D48" stroke-width="0.216" stroke-miterlimit="22.9256" d="
	M70.98,57.086c-0.274-0.26-0.303,0.293-0.121-0.403l0.657-1.389c0.023-0.035,0.071-0.084,0.107-0.126
	c0.732-0.987,8.865-4.486,10.865-4.708l-2.864,1.718c-1.016,0.79-0.461,0.614-0.748,1.322C78.689,53.963,71.833,56.82,70.98,57.086
	L70.98,57.086z"/>
<path fill-rule="evenodd" clip-rule="evenodd" fill="#916D48" stroke="#916D48" stroke-width="0.216" stroke-miterlimit="22.9256" d="
	M91.151,53.279c-1.121,0.214-5.656,2.896-6.113,3.625c0.927,0.351,0.562,0.139,1,0.273l-7.853,3.463
	c-1.736,0.897-5.984,4.315-6.729,4.616l8.734-7.21C82.201,56.918,88.825,53.593,91.151,53.279L91.151,53.279z"/>
<path fill-rule="evenodd" clip-rule="evenodd" fill="#916D48" stroke="#916D48" stroke-width="0.216" stroke-miterlimit="22.9256" d="
	M149.348,92.784c-0.065,3.646,1.176,6.857,1.466,9.771l-0.489-0.985c-4.321-11.062-1.412-10.851-3.228-17.93l2.294,6.315
	L149.348,92.784L149.348,92.784z"/>
<path fill-rule="evenodd" clip-rule="evenodd" fill="#916D48" stroke="#916D48" stroke-width="0.216" stroke-miterlimit="22.9256" d="
	M68.449,51.042c-0.035,0.038-0.092,0.043-0.105,0.113l-0.255,0.419c-0.356-0.321-0.613-0.604-0.965-0.952
	c-0.842-0.835-0.762-0.521-0.954-1.183c1.435-3.176,5.381-6.984,8.008-9.58C71.696,42.874,69.519,47.058,68.449,51.042
	L68.449,51.042z"/>
<path fill-rule="evenodd" clip-rule="evenodd" fill="#916D48" stroke="#916D48" stroke-width="0.216" stroke-miterlimit="22.9256" d="
	M114.395,21.666c-3.339-0.042-6.354-0.485-8.586-1.944l-9.019-1.629c1.363,0.078,3.115-0.296,4.985-0.13
	c1.622,0.145,3.15,0.291,4.724,0.715C109.472,19.479,111.74,20.776,114.395,21.666L114.395,21.666z"/>
<path fill-rule="evenodd" clip-rule="evenodd" fill="#916D48" stroke="#916D48" stroke-width="0.216" stroke-miterlimit="22.9256" d="
	M138.856,84.476c-4.947-12.166-4.563-8.653-3.234-21.106c0.321,0.627,0.301,0.612,0.485,1.345c0.441,1.755-0.056,3.001-0.056,4.916
	l0.621,8.456c0.166,1.45,0.987,3.511,1.547,4.842l0.711,1.374L138.856,84.476L138.856,84.476z"/>
<path fill-rule="evenodd" clip-rule="evenodd" fill="#916D48" stroke="#916D48" stroke-width="0.216" stroke-miterlimit="22.9256" d="
	M121.593,23.759c-2.71-0.162-3.36-0.049-5.766,0.653c-4.059,1.184-4.704-0.515-11.641,0.065l-5.568,0.467
	c4.759-0.766,5.247-1.231,11.013-1.536c2.04-0.108,4.053,0.233,6.005,0.129c1.025-0.054,1.984-0.196,2.998-0.269
	C119.786,23.185,121.105,23.197,121.593,23.759L121.593,23.759z"/>
<path fill-rule="evenodd" clip-rule="evenodd" fill="#916D48" stroke="#916D48" stroke-width="0.216" stroke-miterlimit="22.9256" d="
	M70.984,48.385c1.175-1.854,4.455-5.415,6.166-6.812c2.805-2.291,5.338-3.373,8.619-4.582c-1.41,1.476-5.785,4.115-7.679,5.344
	C75.308,44.142,72.122,47.556,70.984,48.385L70.984,48.385z"/>
<path fill-rule="evenodd" clip-rule="evenodd" fill="#916D48" stroke="#916D48" stroke-width="0.216" stroke-miterlimit="22.9256" d="
	M87.505,29.147l0.372,1.055c-1.933,0.118-3.021,0.049-4.594,0.89c-3.75,2.002-6.225,4.677-9.333,7.47
	c-0.029-0.034-0.1-0.124-0.104-0.086c-0.161-0.268,1.447-1.824,1.659-2.078c1.312-1.572,4.389-4.639,5.993-5.499l11.068-4.407
	c-0.04,0.03-0.1,0.023-0.121,0.086c-0.043,0.13-0.949,0.482-1.118,0.548C89.885,27.685,88.633,28.216,87.505,29.147L87.505,29.147z"
	/>
<path fill-rule="evenodd" clip-rule="evenodd" fill="#916D48" stroke="#916D48" stroke-width="0.216" stroke-miterlimit="22.9256" d="
	M113.435,12.625c-2.007,0.237-3.149,0.168-5.095,0.752c-1.626,0.488-2.648,1.046-4.454,1.352c-4.453,0.752-2.983-0.606-10.266,1.473
	c2.982-1.515,5.7-1.639,9.477-2.565c1.577-0.386,3.346-1.071,4.918-1.32C110.315,11.953,111.606,12.563,113.435,12.625
	L113.435,12.625z"/>
<path fill-rule="evenodd" clip-rule="evenodd" fill="#916D48" stroke="#916D48" stroke-width="0.216" stroke-miterlimit="22.9256" d="
	M141.05,40.291c-0.639,1.259-1.475,1.218-2.704,1.856l-2.489,2.488C136.613,36.438,140.68,39.304,141.05,40.291L141.05,40.291z"/>
<path fill-rule="evenodd" clip-rule="evenodd" fill="#916D48" stroke="#916D48" stroke-width="0.216" stroke-miterlimit="22.9256" d="
	M134.129,27.238c-0.202,0.228-0.871-0.743-1.766-1.564c-0.698-0.642-1.148-0.91-1.958-1.392c-3.908-2.322-5.732-2.493-10.277-3.512
	l-5.511-1.276c1.506,0.101,10.444,1.363,11.713,1.777c1.551,0.505,3.352,1.525,4.451,2.458
	C133.425,25.974,132.129,25.013,134.129,27.238L134.129,27.238z"/>
<path fill-rule="evenodd" clip-rule="evenodd" fill="#916D48" stroke="#916D48" stroke-width="0.216" stroke-miterlimit="22.9256" d="
	M79.61,36.905l-0.365,0.081c0.05-0.031,0.125-0.083,0.147-0.106c0.265-0.262,0.078-0.074,0.273-0.299
	c1.937-1.511,4.332-3.111,7.144-4.082c1.553-0.536,2.961-0.768,4.688-0.957c2.489-0.273,2.227-0.124,5.046-0.601
	c-2.09,1.443-8.709,1.619-13.291,3.835C81.886,35.438,80.777,36.316,79.61,36.905L79.61,36.905z"/>
<path fill-rule="evenodd" clip-rule="evenodd" fill="#916D48" stroke="#916D48" stroke-width="0.216" stroke-miterlimit="22.9256" d="
	M121.987,65.335l-0.376-0.128c0.871-0.432,1.387-1.438,2.091-2.053c0.024-0.021,0.077-0.059,0.115-0.09
	c1.463-0.938,4.215-2.363,5.819-2.972c-0.604,0.5-3.28,2.596-3.488,2.936l1.122,0.342L121.987,65.335L121.987,65.335z
	 M121.417,65.767c-1.942,0.993-3.207,2.247-4.827,3.451c0.833-1.212,2.906-3.051,4.075-4.022l0.997,0.186L121.417,65.767
	L121.417,65.767z"/>
<path fill-rule="evenodd" clip-rule="evenodd" fill="#916D48" stroke="#916D48" stroke-width="0.216" stroke-miterlimit="22.9256" d="
	M119.324,18.697c-2.886,0.372-4.5-0.336-6.626-1.287l-6.763-1.257c6.221-0.294,5.314-0.454,10.174,1.571
	C117.083,18.13,118.449,18.332,119.324,18.697L119.324,18.697z"/>
<path fill-rule="evenodd" clip-rule="evenodd" fill="#916D48" stroke="#916D48" stroke-width="0.216" stroke-miterlimit="22.9256" d="
	M66.948,54.057c-0.46,0.735-1.298,1.324-1.948,1.88c-0.665,0.569-1.285,1.411-1.911,1.819c0.104,0.329,0.192,0.271-0.122,0.271
	l0.122-0.271c-0.064-0.132-0.159-0.348-0.209-0.429c-0.025-0.04-0.106-0.17-0.137-0.208c-0.216-0.252-0.073-0.097-0.305-0.248
	c0.117,0.443,0.239,0.367-0.169,0.367l0.169-0.367c0.101-0.691,0.516-1.255,0.833-1.957c0.259-0.573,0.514-1.477,1.035-1.834
	c0.001,0.35-0.066,0.091,0.072,0.261C65.865,53.251,65.958,53.493,66.948,54.057L66.948,54.057z"/>
<path fill-rule="evenodd" clip-rule="evenodd" fill="#916D48" stroke="#916D48" stroke-width="0.216" stroke-miterlimit="22.9256" d="
	M138.431,22.942l-0.229,0.263c-0.028,0.032-0.06-0.135-0.072-0.106c-0.012,0.028-0.057-0.084-0.074-0.104l-0.159-0.193
	c-2.741-2.938-9.603-7.086-12.938-8.993c4.978,1.518,9.75,4.617,12.943,8.628c0.022,0.028,0.053,0.071,0.077,0.099L138.431,22.942
	L138.431,22.942z"/>
<path fill-rule="evenodd" clip-rule="evenodd" fill="#916D48" stroke="#916D48" stroke-width="0.216" stroke-miterlimit="22.9256" d="
	M137.166,16.532l-3.089-1.74c-6.086-2.969-7.411-3.036-14.026-4.542c4.97-0.219,11.482,2.045,15.484,5.028
	C136.187,15.764,136.557,16.063,137.166,16.532L137.166,16.532z"/>
<path fill-rule="evenodd" clip-rule="evenodd" fill="#916D48" stroke="#916D48" stroke-width="0.216" stroke-miterlimit="22.9256" d="
	M71.418,38.357l0.82-1.517c2.022-3.5,5.361-5.935,8.407-8.542c-0.697,1.356-3.31,3.885-4.438,5.086
	c-1.559,1.659-2.495,2.414-4.154,4.329C71.736,38.078,71.871,38.04,71.418,38.357L71.418,38.357z"/>
<path fill-rule="evenodd" clip-rule="evenodd" fill="#916D48" stroke="#916D48" stroke-width="0.216" stroke-miterlimit="22.9256" d="
	M105.007,45.363c-2.382-0.287-4.488-1.289-6.502-2.075l-6.98-1.643c0.779-0.09,2.76,0.162,3.786,0.263
	C98.303,42.202,103.207,43.895,105.007,45.363L105.007,45.363z"/>
<path fill-rule="evenodd" clip-rule="evenodd" fill="#916D48" stroke="#916D48" stroke-width="0.216" stroke-miterlimit="22.9256" d="
	M127.617,43.107c-1.206-0.104-3.005-0.858-4.254-1.156l-5.152-0.053C119.034,41.286,125.865,39.473,127.617,43.107L127.617,43.107z"
	/>
<path fill-rule="evenodd" clip-rule="evenodd" fill="#916D48" stroke="#916D48" stroke-width="0.216" stroke-miterlimit="22.9256" d="
	M122.277,45.337c-1.091-0.105-1.837-0.36-3.115-0.35c-1.207,0.009-2.175,0.315-3.354,0.436l-6.926-0.152
	C115.524,45.068,117.061,42.574,122.277,45.337L122.277,45.337z"/>
<path fill-rule="evenodd" clip-rule="evenodd" fill="#916D48" stroke="#916D48" stroke-width="0.216" stroke-miterlimit="22.9256" d="
	M61.998,102.735l0.602-0.797c-0.501-0.432-0.373-0.657-1.173-0.606C60.99,102.151,61.527,102.31,61.998,102.735L61.998,102.735z
	 M64.092,101.625l-3.807,2.973c0.083,0.308,0.1,0.201-0.229,0.108c0.005,0.283,0.067,0.219-0.218,0.15
	c0.079,0.334,0.132,0.229-0.232,0.26c0-0.386-0.111-0.338,0.232-0.26c-0.081-0.334-0.122-0.249,0.218-0.15l0.229-0.108
	c0.468-0.694,0.987-0.603,0.8-1.45l-0.599-0.163c-0.571,0.013-0.269,0.072-0.71,0.213c-1.265,0.405-0.03-0.136-1.13-0.06
	c0.071,0.302,0.124,0.237-0.183,0.172c0.059,0.306,0.109,0.232-0.202,0.156c0.051,0.276,0.087,0.192-0.213,0.141
	c0.02,0.25,0.067,0.178-0.204,0.145c0.026,0.268,0.084,0.208-0.185,0.169c0.036,0.275,0.088,0.194-0.208,0.195
	c0-0.294-0.076-0.236,0.208-0.195c-0.034-0.268-0.088-0.204,0.185-0.169c-0.028-0.268-0.076-0.197,0.204-0.145
	c-0.02-0.284-0.075-0.217,0.213-0.141c-0.048-0.292-0.098-0.22,0.202-0.156c-0.056-0.307-0.118-0.251,0.183-0.172
	c0.249-0.614,0.5-0.778,1.063-1.235c0.981-0.796,2.666-2.289,3.697-2.944c-0.464,0.711-0.872,0.843-1.524,1.198l1.555,1.655
	L64.092,101.625L64.092,101.625z"/>
<path fill-rule="evenodd" clip-rule="evenodd" fill="#916D48" stroke="#916D48" stroke-width="0.216" stroke-miterlimit="22.9256" d="
	M97.82,54.641c-0.69,0.712-0.906,0.651-1.621,1.21c-2.557,2-2.369,3.174-6.002,5.414c2.107-2.523,3.317-4.791,5.48-6.111
	c0.568-0.347,2.273-1.312,2.541-1.151c0.01-0.045,0.059,0.086,0.098,0.119L97.82,54.641L97.82,54.641z"/>
<path fill-rule="evenodd" clip-rule="evenodd" fill="#916D48" stroke="#916D48" stroke-width="0.216" stroke-miterlimit="22.9256" d="
	M159.612,52.784l-2.119,2.177c1.061,1.708,0.799,1.399,1.85,1.288L159.612,52.784L159.612,52.784z M159.318,58.073
	c-0.335-0.201-0.124-0.062-0.378-0.262c-3.657-2.871-2.011-3.779-0.304-5.454c0.987-0.968,0.64-0.666,0.57-2.131
	C160.128,51.331,159.462,56.597,159.318,58.073L159.318,58.073z"/>
<path fill-rule="evenodd" clip-rule="evenodd" fill="#916D48" stroke="#916D48" stroke-width="0.216" stroke-miterlimit="22.9256" d="
	M147.489,27.045l-0.231,0.142l-0.896-0.481c-6.267-2.927-4.66-4.844-10.074-8.656l-1.788-1.232c4.739,1.974,6.095,4.906,9.496,7.835
	C144.881,25.416,146.436,26.638,147.489,27.045L147.489,27.045z"/>
<path fill-rule="evenodd" clip-rule="evenodd" fill="#916D48" stroke="#916D48" stroke-width="0.216" stroke-miterlimit="22.9256" d="
	M124.043,17.562c-4.008,0.357-6.914-1.934-9.431-2.403l-3.637-0.463C119.256,14.352,121.269,17.17,124.043,17.562L124.043,17.562z"
	/>
<path fill-rule="evenodd" clip-rule="evenodd" fill="#916D48" stroke="#916D48" stroke-width="0.216" stroke-miterlimit="22.9256" d="
	M96.485,52.754c-1.628,1.281-3.432,2.59-5.344,3.696c-1.016,0.588-1.91,1.016-3.036,1.556l-2.938,1.444
	c-0.015-0.031-0.061,0.097-0.095,0.075l-0.238-0.087C89.884,56.602,89.283,55.924,96.485,52.754L96.485,52.754z"/>
<path fill-rule="evenodd" clip-rule="evenodd" fill="#916D48" stroke="#916D48" stroke-width="0.216" stroke-miterlimit="22.9256" d="
	M67.77,52.939c-0.224,0.516-0.535,0.875-0.822,1.117c-0.99-0.563-1.083-0.806-2.57-0.715c-0.138-0.17-0.071,0.088-0.072-0.261
	c0.069-0.668,0.583-1.442,0.966-2.055c0.362,0,0.247,0.067,0.163-0.339c0.207-0.194,0.125-0.083,0.357-0.241l1.968,1.832
	L67.77,52.939L67.77,52.939z"/>
<path fill-rule="evenodd" clip-rule="evenodd" fill="#916D48" stroke="#916D48" stroke-width="0.216" stroke-miterlimit="22.9256" d="
	M117.578,11.688c-0.055-0.832,0.242,0.395-0.089-0.31c-0.012-0.025-0.08-0.053-0.09-0.124c-0.012-0.08-0.074-0.088-0.112-0.131
	l3.805,0.734c0.196,0.028,0.422,0.038,0.607,0.079l0.691,0.277C120.755,12.363,118.932,12.02,117.578,11.688L117.578,11.688z
	 M116.876,11.932c0.444-0.171,0.023-0.041,0.17-0.544l0.463,0.317c0.116,0.09,5.751,2.102,7.381,4.572
	c-1.204-0.555-1.07-0.631-1.951-1.134c-0.739-0.42-1.186-0.644-1.921-1.08c-0.733-0.435-1.322-0.68-1.984-1.011
	c-0.354-0.177-0.733-0.398-1.052-0.562C117.533,12.258,117.214,12.233,116.876,11.932L116.876,11.932z"/>
<path fill-rule="evenodd" clip-rule="evenodd" fill="#916D48" stroke="#916D48" stroke-width="0.216" stroke-miterlimit="22.9256" d="
	M138.816,26.309c-3.622-1.125-5.81-4.705-9.73-6.896l-1.594-0.835c2.981,0.465,6.61,3.669,8.676,5.604
	C137.074,25.031,137.945,25.556,138.816,26.309L138.816,26.309z"/>
<path fill-rule="evenodd" clip-rule="evenodd" fill="#916D48" stroke="#916D48" stroke-width="0.216" stroke-miterlimit="22.9256" d="
	M69.816,53.376c0.211-0.593,0.68-1.264,0.997-1.703c1.917-2.659,5.268-6.111,7.886-7.493l12.886-5.263
	c-1.063,0.361-2.294,0.552-3.406,0.948c-4.653,1.656-10.254,5.604-13.898,8.735c-1.924,1.653-1.662,1.466-3.079,3.108L69.816,53.376
	L69.816,53.376z"/>
<path fill-rule="evenodd" clip-rule="evenodd" fill="#916D48" stroke="#916D48" stroke-width="0.216" stroke-miterlimit="22.9256" d="
	M64.99,63.877c0.108,0.325,0.166,0.26-0.17,0.196c-0.014,0.456,0.155,0.273-0.219,0.285c0.059,0.309,0.127,0.254-0.175,0.192
	c0.061,0.3,0.13,0.254-0.161,0.183c-0.012,0.479,0.124,0.315-0.203,0.324c0.048,0.297,0.123,0.253-0.159,0.196
	c0.068,0.331,0.158,0.271-0.146,0.271c-0.104-0.376-0.212-0.333,0.146-0.271c-0.074-0.286-0.132-0.225,0.159-0.196
	c-0.105-0.651-0.051-0.152,0.203-0.324c-0.084-0.3-0.143-0.244,0.161-0.183c-0.063-0.295-0.123-0.232,0.175-0.192
	c0.003-0.601-0.033-0.132,0.219-0.285C64.706,63.717,64.634,63.769,64.99,63.877c-0.173-0.119-0.266-0.132-0.394-0.289
	c-0.47-0.579-0.17-0.023-0.309-0.683c0.686-0.505,1.071-0.92,1.862-1.407c1.236-0.761,4.87-2.867,6.104-3.117l-2.059,1.146
	C68.665,60.485,65.363,63.698,64.99,63.877L64.99,63.877z"/>
<path fill-rule="evenodd" clip-rule="evenodd" fill="#916D48" stroke="#916D48" stroke-width="0.216" stroke-miterlimit="22.9256" d="
	M69.638,57.721l-0.313,0.218c-0.381-0.119-0.291-0.195-0.291,0.197c-0.779,0.496-4.712,3.271-5.362,3.892
	c-0.524,0.501-0.885,0.823-1.508,1.33l2.543-2.761c0.927-0.961,3.861-3.57,4.796-3.997l0.254-0.13
	c0.36-0.194,0.215-0.174,0.497-0.099c-0.398,0.626-0.256,0.54-0.319,0.758C69.734,57.832,70.063,57.31,69.638,57.721L69.638,57.721z
	"/>
<path fill-rule="evenodd" clip-rule="evenodd" fill="#916D48" stroke="#916D48" stroke-width="0.216" stroke-miterlimit="22.9256" d="
	M109.906,26.26c-0.636,0.021-1.789,0.373-2.749,0.415c-1.339,0.059-2.016-0.16-3.197-0.291l-6.55,0.253
	c0.858-0.324,4.868-1.047,6.021-0.982c0.947,0.054,2.029,0.327,3.075,0.44C107.683,26.222,108.745,26.204,109.906,26.26
	L109.906,26.26z"/>
<path fill-rule="evenodd" clip-rule="evenodd" fill="#916D48" stroke="#916D48" stroke-width="0.216" stroke-miterlimit="22.9256" d="
	M109.072,105.467c-0.216-0.535-0.236-1.575-0.288-2.185l-1.221,1.521l1.084,1.483l0.454-0.119c0.007,0.361,0.073,0.921-0.026,1.239
	c-0.156,0.498-0.285,0.432-0.537,0.616l0.271-0.646c-0.507-0.323-0.829-0.741-1.283-1.182c-0.382-0.37-0.844-0.843-0.678-1.682
	c0.129-0.65,0.685-1.055,1.063-1.425c0.471-0.462,0.791-0.839,1.182-1.53L109.072,105.467L109.072,105.467z"/>
<path fill-rule="evenodd" clip-rule="evenodd" fill="#916D48" stroke="#916D48" stroke-width="0.216" stroke-miterlimit="22.9256" d="
	M97.102,44.542c-1.696-0.044-3.21-0.521-5.15-0.52l-4.965,0.902c0.035-0.03,0.089-0.12,0.106-0.085l0.342-0.219
	c3.056-1.582,5.901-1.665,9.078-0.416l0.257,0.11C97.132,44.502,96.965,44.437,97.102,44.542L97.102,44.542z"/>
<path fill-rule="evenodd" clip-rule="evenodd" fill="#916D48" stroke="#916D48" stroke-width="0.216" stroke-miterlimit="22.9256" d="
	M121.854,26.709c-6.064-0.425-4.479-0.407-10.491,0.526c0.036-0.028,0.091-0.116,0.109-0.082l0.349-0.21
	c2.2-1.087,5.151-1.422,7.545-1.025l1.878,0.455C121.888,26.62,121.236,26.233,121.854,26.709L121.854,26.709z"/>
<path fill-rule="evenodd" clip-rule="evenodd" fill="#916D48" stroke="#916D48" stroke-width="0.216" stroke-miterlimit="22.9256" d="
	M114.958,11.429c0.669-0.045,0.349,0.009,0.527,0.23L114.958,11.429c-0.689,0.044-1.135-0.177-1.828-0.275
	c-1.21-0.171-5.129,0.132-6.466,0.207c1.33-1.009,5.994-1.165,7.559-0.888c0.572,0.101,0.165-0.04,0.499,0.187
	C113.955,10.894,114.545,11.222,114.958,11.429L114.958,11.429z"/>
<path fill-rule="evenodd" clip-rule="evenodd" fill="#916D48" stroke="#916D48" stroke-width="0.216" stroke-miterlimit="22.9256" d="
	M115.592,51.054c-0.628,0.334-1.859,0.182-2.622,0.377c1.265,0.952,2.04,0.036,3.535,0.278c-0.566,0.353-0.062,0.108-0.515,0.185
	l-2.661,0.13c-1.151-0.002-1.902,0.044-3.09-0.023l0.155-0.806c-0.916,0.164-0.775,0.005-1.186,0.626
	c0.551-0.044,0.217-0.188,0.496,0.144l-0.496-0.144c-0.213-0.016-0.5-0.033-0.749-0.071c-0.069-0.011-0.382-0.069-0.436-0.088
	c-0.614-0.218-0.19-0.061-0.427-0.231c0.441,0.025,0.271,0.111,0.698-0.096c-1.014-0.809-0.481-0.117-1.156-0.654
	c1.464,0.219,2.566,0.478,4.07,0.479C112.654,51.16,114.172,51.013,115.592,51.054L115.592,51.054z"/>
<path fill-rule="evenodd" clip-rule="evenodd" fill="#916D48" stroke="#916D48" stroke-width="0.216" stroke-miterlimit="22.9256" d="
	M70.826,62.465c-0.421,0.356-1.593,1.917-1.992,2.43c-1.878,2.422-3.484,2.771-6.167,7.151l3.397-5.5
	C67.502,65.196,69.209,63.688,70.826,62.465L70.826,62.465z"/>
<path fill-rule="evenodd" clip-rule="evenodd" fill="#916D48" stroke="#916D48" stroke-width="0.216" stroke-miterlimit="22.9256" d="
	M127.713,31.164c-1.266,0.034-1.292-3.25-4.137-4.829l-2.133-1.039C124.021,25.689,128.104,28.302,127.713,31.164L127.713,31.164z"
	/>
<path fill-rule="evenodd" clip-rule="evenodd" fill="#916D48" stroke="#916D48" stroke-width="0.216" stroke-miterlimit="22.9256" d="
	M113.895,108.184c-0.343-0.222-0.544-0.398-0.893-0.589l0.003,0.99c-0.399-0.663-0.163-0.272-0.209-0.598l0.062-1.599
	c0.072-1.472,0.348-3.836,1.45-4.881c0.039-0.037,0.236-0.13,0.262-0.21c0.025-0.082,0.094-0.073,0.143-0.108l-0.553,1.76
	C113.592,104.677,113.65,106.335,113.895,108.184L113.895,108.184z"/>
<path fill-rule="evenodd" clip-rule="evenodd" fill="#916D48" stroke="#916D48" stroke-width="0.216" stroke-miterlimit="22.9256" d="
	M114.89,113.639l-0.236-0.205c-0.025-0.023-0.079-0.071-0.109-0.1l-0.462-0.469c-0.493-0.516-0.365-0.498-0.497-0.436
	c-0.48-0.633-0.644-3.128-0.656-3.856l0.625,0.445c0.115,0.106,0.206,0.232,0.284,0.318l-0.012-0.686
	c0.12,0.177,0.056-0.021,0.199,0.406C114.037,109.089,114.601,112.598,114.89,113.639L114.89,113.639z"/>
<path fill-rule="evenodd" clip-rule="evenodd" fill="#916D48" stroke="#916D48" stroke-width="0.216" stroke-miterlimit="22.9256" d="
	M159.343,56.249c-1.051,0.111-0.79,0.42-1.85-1.288l2.119-2.177L159.343,56.249L159.343,56.249z"/>
<path fill-rule="evenodd" clip-rule="evenodd" fill="#916D48" stroke="#916D48" stroke-width="0.216" stroke-miterlimit="22.9256" d="
	M16.882,152.347c-0.554,0.521-0.49,0.292-1.164,0.661c-0.359,0.196-0.629,0.386-1.035,0.555c-0.845,0.35-1.432,0.859-2.286,1.042
	l-0.334,0.186c0-0.396-0.081-0.292,0.334-0.186c0.212-0.851,0.525-1.214,1.41-1.397c0.047-0.679,0.061-0.062-0.261-0.349
	c0.381-0.413,1.603-1.131,2.048-1.356c-0.034,0.044-0.073,0.104-0.099,0.132s-0.075,0.093-0.104,0.123l-0.225,0.2
	c-0.018-0.03-0.079,0.057-0.118,0.083l1.077,0.582L16.882,152.347L16.882,152.347z"/>
<path fill-rule="evenodd" clip-rule="evenodd" fill="#916D48" stroke="#916D48" stroke-width="0.216" stroke-miterlimit="22.9256" d="
	M131.879,32.143l-2.284-4.229c-0.472-0.903-1.621-2.187-2.399-2.903l-0.678-0.644c0.26,0.114,0.261,0.085,0.568,0.246l0.325,0.198
	c0.028,0.02,0.069,0.052,0.096,0.073c2.298,1.716,3.049,3.137,3.957,5.951C131.607,31.278,131.799,31.495,131.879,32.143
	L131.879,32.143z"/>
<path fill-rule="evenodd" clip-rule="evenodd" fill="#916D48" stroke="#916D48" stroke-width="0.216" stroke-miterlimit="22.9256" d="
	M12.397,154.604c-0.415-0.106-0.334-0.211-0.334,0.186c-0.312,0.246-1.761,0.952-2.224,1.165c-0.962,0.441-2.152,1.196-2.598,1.037
	l6.306-4.134c0.321,0.286,0.308-0.33,0.261,0.349C12.923,153.391,12.61,153.754,12.397,154.604L12.397,154.604z"/>
<path fill-rule="evenodd" clip-rule="evenodd" fill="#916D48" stroke="#916D48" stroke-width="0.216" stroke-miterlimit="22.9256" d="
	M103.893,117.613c0.01,0.244,0.195,0.522-0.198,0.522L103.893,117.613l-0.032-0.155c-0.217,0.469-1.215,1.395-1.667,1.827
	c-0.861,0.822-1.168,1.329-1.942,1.726l-0.006-0.524l-0.007-0.152l0.193-2.636l0.238-0.71c0.09,0.413-0.098,2.751-0.287,3.333
	l2-1.907c0.394-0.439,0.591-0.567,0.991-0.952l0.835-0.805c0.02-0.067,0.09-0.052,0.134-0.079c-0.313,0.757,0.107-0.176-0.188,0.619
	C104.019,117.562,104.07,117.458,103.893,117.613L103.893,117.613z"/>
<path fill-rule="evenodd" clip-rule="evenodd" fill="#916D48" stroke="#916D48" stroke-width="0.216" stroke-miterlimit="22.9256" d="
	M63.899,110.634c0.291-0.426,0.373-0.526,0.654-0.895l0.399-0.475c0.025-0.025,0.063-0.061,0.088-0.086l3.986-4.187l-0.954,1.225
	c0.302,0.501,0.395,0.21,0.276,0.971l-0.418,0.067c-0.195-0.045-0.248-0.173-0.474-0.43c-0.029,0.029-0.074,0.034-0.087,0.088
	l-0.482,0.542c-0.18,0.373,0.039,0.307,0.019,0.877c-0.029,0.839-0.474,1.02-1.117,1.508l-0.67-0.565l-0.732,1.012
	C64.076,110.598,64.273,110.425,63.899,110.634L63.899,110.634z"/>
<path fill-rule="evenodd" clip-rule="evenodd" fill="#916D48" stroke="#916D48" stroke-width="0.216" stroke-miterlimit="22.9256" d="
	M69.81,114.187c-0.106-0.637-0.11-0.51-0.683-0.58c0.052,0.317,0.127,0.247-0.18,0.247l0.18-0.247
	c0.999-1.771,1.676-2.606,2.587-4.108c0.02-0.033,0.046-0.077,0.066-0.109l0.342-0.558c0.059-0.088,0.17-0.25,0.229-0.317
	c0.189-0.217,0.077-0.088,0.309-0.263l-0.493,1.148c-0.018,0.036-0.044,0.079-0.063,0.115l-0.864,1.774
	C70.75,112.098,70.324,113.584,69.81,114.187L69.81,114.187z"/>
<path fill-rule="evenodd" clip-rule="evenodd" fill="#916D48" stroke="#916D48" stroke-width="0.216" stroke-miterlimit="22.9256" d="
	M65.439,111.834c0.372-0.665,0.376-0.585,1.017-0.886c-0.003-0.048-0.025-0.165-0.029-0.14c-0.009,0.058-0.177-0.619,0.231-1.068
	c1.174-1.295,1.815-1.942,2.875-2.286c0.14-0.288,0.245-0.344,0.478-0.53c-0.498,1.008-1.247,1.799-2.073,2.677
	C67.301,110.277,66.213,111.332,65.439,111.834L65.439,111.834z"/>
<path fill-rule="evenodd" clip-rule="evenodd" fill="#916D48" stroke="#916D48" stroke-width="0.216" stroke-miterlimit="22.9256" d="
	M128.694,37.958c-0.982-1.06-2.169-4.377-2.855-6.013c0.702,0.664,1.281,1.74,1.79,2.709
	C128.128,35.603,128.613,36.747,128.694,37.958L128.694,37.958z"/>
<path fill-rule="evenodd" clip-rule="evenodd" fill="#916D48" stroke="#916D48" stroke-width="0.216" stroke-miterlimit="22.9256" d="
	M130.604,42.179c-1.096-0.245-2.099-1.276-2.966-1.873l-3.354-1.793C126.448,38.857,129.488,40.536,130.604,42.179L130.604,42.179z"
	/>
<path fill-rule="evenodd" clip-rule="evenodd" fill="#916D48" stroke="#916D48" stroke-width="0.216" stroke-miterlimit="22.9256" d="
	M105.326,53.296c-0.687,0.58-0.319,0.227-1.175,0.611c-2.053,0.923-3.166,4.027-5.676,4.76c3.163-2.492,1.71-1.787,3.226-3.146
	c0.402-0.361,0.233-0.269,0.55-0.688C102.842,54.048,104.197,53.396,105.326,53.296L105.326,53.296z"/>
<path fill-rule="evenodd" clip-rule="evenodd" fill="#916D48" stroke="#916D48" stroke-width="0.216" stroke-miterlimit="22.9256" d="
	M122.079,47.896c-1.862-0.094-4.879-1.217-6.886-1.839c1.763-0.182,2.166-0.07,3.611,0.594c1.082,0.498,1.807,0.674,2.744,0.983
	L122.079,47.896L122.079,47.896z"/>
<path fill-rule="evenodd" clip-rule="evenodd" fill="#916D48" stroke="#916D48" stroke-width="0.216" stroke-miterlimit="22.9256" d="
	M113.928,55.636c-0.193,0.147,0.122,0.013-0.373,0.25c-0.05,0.024-0.215,0.082-0.27,0.1c-0.245,0.083-0.428,0.083-0.67,0.168
	c-0.596,0.211-1.46,0.968-1.96,1.418c-0.414,0.372-0.457,0.36-0.795,0.809c-0.23,0.306-0.15,0.22-0.402,0.479l-0.348,0.359
	c-0.764,0.84-1.019,0.914-1.831,1.524c-0.15,0.113,0.083-0.012-0.296,0.219l3.825-4.123
	C111.563,56.153,112.648,55.609,113.928,55.636L113.928,55.636z"/>
<path fill-rule="evenodd" clip-rule="evenodd" fill="#916D48" stroke="#916D48" stroke-width="0.216" stroke-miterlimit="22.9256" d="
	M68.449,51.042l-0.6,1.763c-0.017,0.033-0.05,0.091-0.079,0.134l-0.01-0.661l-1.968-1.832c-0.231,0.157-0.15,0.047-0.357,0.241
	c0.084,0.406,0.199,0.339-0.163,0.339l0.163-0.339c0.119-0.294,0.114-0.267,0.282-0.562c0.036-0.063,0.14-0.248,0.198-0.337
	c0.212-0.323,0.098-0.159,0.255-0.348c0.191,0.662,0.111,0.348,0.954,1.183c0.352,0.348,0.609,0.631,0.965,0.952l0.255-0.419
	C68.356,51.085,68.414,51.081,68.449,51.042L68.449,51.042z"/>
<path fill-rule="evenodd" clip-rule="evenodd" fill="#916D48" stroke="#916D48" stroke-width="0.216" stroke-miterlimit="22.9256" d="
	M108.167,56.626c-1.085,0.524-3.831-0.047-6.515,3.436c-0.448,0.581-0.119,0.364-0.693,0.78c0.945-1.456,1.214-2.139,2.726-3.159
	C104.69,57.004,106.648,56.254,108.167,56.626L108.167,56.626z"/>
<path fill-rule="evenodd" clip-rule="evenodd" fill="#916D48" stroke="#916D48" stroke-width="0.216" stroke-miterlimit="22.9256" d="
	M62.945,57.967l-2.776,4.646l1.492-3.998c0.125-0.301,0.177-0.497,0.282-0.762c0.101-0.257,0.042-0.144,0.173-0.376l0.194-0.224
	C62.272,57.847,62.348,58.176,62.945,57.967L62.945,57.967z"/>
<path fill-rule="evenodd" clip-rule="evenodd" fill="#916D48" stroke="#916D48" stroke-width="0.216" stroke-miterlimit="22.9256" d="
	M131.81,39.205c-0.254-0.272-0.22,0.04-0.452-0.876c-0.076-0.301-0.147-0.584-0.214-0.865l-1.298-4.858
	C130.708,34.56,131.873,36.469,131.81,39.205L131.81,39.205z"/>
<path fill-rule="evenodd" clip-rule="evenodd" fill="#916D48" stroke="#916D48" stroke-width="0.216" stroke-miterlimit="22.9256" d="
	M109.072,105.467l0.029,0.7l-0.454,0.119l-1.084-1.483l1.221-1.521C108.835,103.892,108.856,104.932,109.072,105.467
	L109.072,105.467z"/>
<path fill-rule="evenodd" clip-rule="evenodd" fill="#916D48" stroke="#916D48" stroke-width="0.216" stroke-miterlimit="22.9256" d="
	M117.287,11.123c0.038,0.043,0.1,0.051,0.112,0.131c0.01,0.071,0.078,0.099,0.09,0.124c0.331,0.704,0.034-0.522,0.089,0.31
	l-0.068,0.017l-0.463-0.317c-0.147,0.503,0.273,0.373-0.17,0.544l-1.392-0.273c-0.178-0.221,0.142-0.275-0.527-0.23
	c-0.413-0.207-1.003-0.535-0.237-0.769C115.593,10.607,116.427,10.942,117.287,11.123L117.287,11.123z"/>
<path fill-rule="evenodd" clip-rule="evenodd" fill="#916D48" stroke="#916D48" stroke-width="0.216" stroke-miterlimit="22.9256" d="
	M118.428,48.69l-6.823-1.608c3.778,0.434,2.995-0.567,5.262,0.987C117.441,48.462,117.758,48.492,118.428,48.69L118.428,48.69z"/>
<path fill-rule="evenodd" clip-rule="evenodd" fill="#916D48" stroke="#916D48" stroke-width="0.216" stroke-miterlimit="22.9256" d="
	M116.179,59.772c-2.166,0.957-1.889,0.021-1.959-0.039c1.003-0.503,1.624-0.763,2.502-1.384l0.347-0.243
	c-0.101,0.28-0.12,0.577-0.345,0.938C116.438,59.501,116.457,59.254,116.179,59.772L116.179,59.772z"/>
<path fill-rule="evenodd" clip-rule="evenodd" fill="#916D48" stroke="#916D48" stroke-width="0.216" stroke-miterlimit="22.9256" d="
	M118.445,59.421l-1.423,0.215c0.337-0.642,1.391-1.628,1.969-2.061l0.772,0.667C118.329,59.182,118.692,58.722,118.445,59.421
	L118.445,59.421z"/>
<path fill-rule="evenodd" clip-rule="evenodd" fill="#916D48" stroke="#916D48" stroke-width="0.216" stroke-miterlimit="22.9256" d="
	M69.758,56.47l-0.254,0.13C69.504,56.301,69.446,56.382,69.758,56.47c0.34-0.473,0.271-0.443,0.84-0.771
	c0.548-0.316,0.48-0.305,1.024-0.53c-0.036,0.042-0.084,0.091-0.107,0.126l-0.657,1.389c-0.182,0.696-0.153,0.143,0.121,0.403
	c-0.137,0.112-0.084,0.096-0.341,0.244c-0.075,0.042-0.273,0.13-0.363,0.17c-0.624,0.28-0.053,0.104-0.637,0.221l-0.313,0.218
	l-0.291,0.197c0-0.392-0.09-0.316,0.291-0.197l0.313-0.218c0.425-0.411,0.096,0.111,0.298-0.592
	c0.063-0.218-0.079-0.132,0.319-0.758C69.973,56.296,70.119,56.276,69.758,56.47L69.758,56.47z"/>
<path fill-rule="evenodd" clip-rule="evenodd" fill="#916D48" stroke="#916D48" stroke-width="0.216" stroke-miterlimit="22.9256" d="
	M121.987,65.335c-0.277,0.405-0.043,0.22-0.57,0.431l0.245-0.386l-0.997-0.186l0.201-0.214c0.603-0.597,0.688-0.542,1.337-1.003
	c0.433-0.308,1.161-0.737,1.614-0.912c-0.038,0.031-0.09,0.068-0.115,0.09c-0.705,0.614-1.22,1.621-2.091,2.053L121.987,65.335
	L121.987,65.335z"/>
<path fill-rule="evenodd" clip-rule="evenodd" fill="#916D48" stroke="#916D48" stroke-width="0.216" stroke-miterlimit="22.9256" d="
	M128.439,44.594c-1.106,0.15-2.25,0.098-3.216-0.263c-0.669-0.249-0.481-0.177-1.074-0.593
	C125.671,43.848,127.309,44.103,128.439,44.594L128.439,44.594z"/>
<path fill-rule="evenodd" clip-rule="evenodd" fill="#916D48" stroke="#916D48" stroke-width="0.216" stroke-miterlimit="22.9256" d="
	M146.928,28.657l-3.947-1.573c-0.93-0.448-1.176-0.775-2.08-1.526c0.376-0.236-0.03-0.246,0.772,0.366
	c0.524,0.399,1.553,1.043,2.104,1.25c0.933,0.349,1.464,0.329,2.453,0.888C146.821,28.393,146.617,28.214,146.928,28.657
	L146.928,28.657z"/>
<path fill-rule="evenodd" clip-rule="evenodd" fill="#916D48" stroke="#916D48" stroke-width="0.216" stroke-miterlimit="22.9256" d="
	M124.914,47.579c-0.063-0.012-0.153-0.093-0.19-0.037l-1.032-0.273c-0.413-0.136-0.639-0.237-0.997-0.42
	c-1.177-0.602-1.071-0.329-1.965-0.935c1.011,0.035,3.086,0.719,3.853,1.336L124.914,47.579L124.914,47.579z"/>
<path fill-rule="evenodd" clip-rule="evenodd" fill="#916D48" stroke="#916D48" stroke-width="0.216" stroke-miterlimit="22.9256" d="
	M119.342,110.77c0.343-0.956,0.491-1.413,0.999-2.313c0.106-0.189,0.072-0.168,0.199-0.341c0.18-0.244,0.093-0.115,0.297-0.279
	C120.91,109.126,120.682,109.469,119.342,110.77L119.342,110.77z"/>
<path fill-rule="evenodd" clip-rule="evenodd" fill="#916D48" stroke="#916D48" stroke-width="0.216" stroke-miterlimit="22.9256" d="
	M61.998,102.735c-0.47-0.426-1.007-0.584-0.572-1.403c0.8-0.051,0.672,0.175,1.173,0.606L61.998,102.735L61.998,102.735z"/>
<path fill-rule="evenodd" clip-rule="evenodd" fill="#916D48" stroke="#916D48" stroke-width="0.216" stroke-miterlimit="22.9256" d="
	M126.59,47.128c-0.983-0.444-2.083-1.473-2.518-2.024C125.138,45.575,126.073,45.952,126.59,47.128L126.59,47.128z"/>
<path fill-rule="evenodd" clip-rule="evenodd" fill="#916D48" stroke="#916D48" stroke-width="0.216" stroke-miterlimit="22.9256" d="
	M148.56,31.133c0.693,0.29,0.607,0.241,1.183,0.938l0.397-0.981l-0.108,1.039c-0.783,0.002-0.35,0.07-0.642-0.281
	c-0.407-0.067,0.019-0.055-0.286,0.246c0.266-0.052,0.207-0.117,0.223,0.133l0.29,0.062c0.284-0.071,0.214-0.118,0.174,0.178
	l0.221,0.135c0.333,0.178,0.178-0.5,0.295,0.473c-0.847-0.119-0.3-0.053-0.513-0.245l0.217-0.228
	c-0.312,0.088-0.267,0.169-0.221-0.135c-0.254,0.034-0.188,0.085-0.174-0.178l-0.29-0.062c-0.327,0.088-0.293,0.181-0.223-0.133
	c-0.275,0.059-0.201,0.102-0.162-0.191l-0.204-0.325c-0.284,0.059-0.233,0.131-0.215-0.139l-0.231-0.122
	c-0.33,0.077-0.244,0.14-0.244-0.204c0.306,0.019,0.247-0.07,0.244,0.204c0.294-0.069,0.25-0.151,0.231,0.122
	c0.267-0.039,0.213-0.107,0.215,0.139c0.471,0.148,0.173-0.019,0.204,0.325c0.429-0.39,0.256-0.08,0.047-0.39L148.56,31.133
	L148.56,31.133z"/>
<path fill-rule="evenodd" clip-rule="evenodd" fill="#916D48" stroke="#916D48" stroke-width="0.216" stroke-miterlimit="22.9256" d="
	M113.895,108.184l-0.067,0.468l0.012,0.686c-0.078-0.086-0.169-0.212-0.284-0.318l-0.625-0.445l0.075,0.012l-0.003-0.99
	C113.35,107.785,113.551,107.962,113.895,108.184L113.895,108.184z"/>
<path fill-rule="evenodd" clip-rule="evenodd" fill="#916D48" stroke="#916D48" stroke-width="0.216" stroke-miterlimit="22.9256" d="
	M107.138,50.681c0.674,0.537,0.142-0.155,1.156,0.654c-0.427,0.207-0.256,0.121-0.698,0.096c-0.28-0.07-0.414-0.108-0.719-0.257
	c-0.608-0.296-0.464-0.229-0.657-0.699L107.138,50.681L107.138,50.681z"/>
<path fill-rule="evenodd" clip-rule="evenodd" fill="#916D48" stroke="#916D48" stroke-width="0.216" stroke-miterlimit="22.9256" d="
	M110.238,52.001l-0.535-0.036c-0.279-0.331,0.055-0.188-0.496-0.144c0.411-0.621,0.27-0.462,1.186-0.626L110.238,52.001
	L110.238,52.001z"/>
<path fill-rule="evenodd" clip-rule="evenodd" fill="#916D48" stroke="#916D48" stroke-width="0.216" stroke-miterlimit="22.9256" d="
	M63.089,57.756l-0.122,0.271l-0.022-0.06c-0.598,0.209-0.673-0.121-0.636-0.715l-0.042-0.014c0.408,0,0.286,0.076,0.169-0.367
	c0.232,0.151,0.089-0.004,0.305,0.248c0.031,0.038,0.112,0.168,0.137,0.208C62.93,57.409,63.025,57.624,63.089,57.756L63.089,57.756
	z"/>
<path fill-rule="evenodd" clip-rule="evenodd" fill="#916D48" stroke="#916D48" stroke-width="0.216" stroke-miterlimit="22.9256" d="
	M118.288,101.476l-0.935,2.179c-0.375,0.839-0.565,1.222-0.774,2.089c-0.424,1.758-0.417,3.581-0.486,5.435l1.295-10.095
	C118.137,101.36,117.61,101.444,118.288,101.476L118.288,101.476z"/>
<path fill-rule="evenodd" clip-rule="evenodd" fill="#916D48" stroke="#916D48" stroke-width="0.216" stroke-miterlimit="22.9256" d="
	M79.61,36.905l-0.277,0.317c-0.42,0.422-0.578,0.427-1.197,0.737l1.044-1.062c0.396-0.343,0.13-0.124,0.486-0.316
	c-0.195,0.225-0.009,0.037-0.273,0.299c-0.022,0.022-0.097,0.075-0.147,0.106L79.61,36.905L79.61,36.905z"/>
</svg>
